<svg width="500" height="500" viewBox="0 0 500 500" fill="none" xmlns="http://www.w3.org/2000/svg">
<rect width="500" height="500" fill="#7E42D6"/>
<circle cx="249.5" cy="250.5" r="216.5" stroke="white" stroke-width="20"/>
<path d="M99.2 305C98.0267 305 97.0667 304.627 96.32 303.88C95.5733 303.133 95.2 302.173 95.2 301V197C95.2 195.827 95.5733 194.867 96.32 194.12C97.0667 193.373 98.0267 193 99.2 193H172.64C173.813 193 174.773 193.373 175.52 194.12C176.373 194.867 176.8 195.827 176.8 197V213.16C176.8 214.333 176.373 215.293 175.52 216.04C174.773 216.787 173.813 217.16 172.64 217.16H123.36V240.68H169.44C170.613 240.68 171.573 241.107 172.32 241.96C173.173 242.707 173.6 243.667 173.6 244.84V260.84C173.6 261.907 173.173 262.867 172.32 263.72C171.573 264.467 170.613 264.84 169.44 264.84H123.36V301C123.36 302.173 122.987 303.133 122.24 303.88C121.493 304.627 120.533 305 119.36 305H99.2ZM197.817 305C196.75 305 195.79 304.627 194.937 303.88C194.19 303.133 193.817 302.173 193.817 301V197C193.817 195.827 194.19 194.867 194.937 194.12C195.79 193.373 196.75 193 197.817 193H215.097C216.803 193 218.083 193.48 218.937 194.44C219.897 195.293 220.483 195.987 220.697 196.52L248.857 247.08L277.017 196.52C277.337 195.987 277.87 195.293 278.617 194.44C279.47 193.48 280.803 193 282.617 193H299.737C300.91 193 301.87 193.373 302.617 194.12C303.47 194.867 303.897 195.827 303.897 197V301C303.897 302.173 303.47 303.133 302.617 303.88C301.87 304.627 300.91 305 299.737 305H280.697C279.523 305 278.51 304.627 277.657 303.88C276.91 303.133 276.537 302.173 276.537 301V241L258.457 274.44C258.03 275.4 257.39 276.253 256.537 277C255.683 277.747 254.51 278.12 253.017 278.12H244.697C243.203 278.12 242.03 277.747 241.177 277C240.323 276.253 239.63 275.4 239.097 274.44L221.017 241V301C221.017 302.173 220.643 303.133 219.897 303.88C219.15 304.627 218.19 305 217.017 305H197.817ZM354.667 305C353.494 305 352.534 304.627 351.787 303.88C351.04 303.133 350.667 302.173 350.667 301V218.12H322.187C321.014 218.12 320.054 217.747 319.307 217C318.56 216.147 318.187 215.187 318.187 214.12V197C318.187 195.827 318.56 194.867 319.307 194.12C320.054 193.373 321.014 193 322.187 193H408.267C409.44 193 410.4 193.373 411.147 194.12C411.894 194.867 412.267 195.827 412.267 197V214.12C412.267 215.187 411.894 216.147 411.147 217C410.4 217.747 409.44 218.12 408.267 218.12H379.787V301C379.787 302.173 379.414 303.133 378.667 303.88C377.92 304.627 376.96 305 375.787 305H354.667Z" fill="white"/>
</svg>
