<svg width="724" height="420" viewBox="0 0 724 420" fill="none" xmlns="http://www.w3.org/2000/svg">
<path d="M644.039 240.08C644.039 243.819 643.832 247.556 643.418 251.27C639.31 288.37 614.912 322.41 576.326 350C569.238 355.08 561.678 359.93 553.647 364.55C553.246 364.79 552.844 365.02 552.443 365.24C549.004 367.24 545.469 369.13 541.868 371C527.499 378.429 512.69 384.886 497.531 390.33C454.332 406 403.958 416 349.753 418.6C340.607 419.04 331.372 419.26 322.048 419.26C275.047 419.26 230.395 413.66 190.138 403.58C186.526 402.68 182.954 401.743 179.419 400.77C157.356 394.787 135.793 386.938 114.944 377.3L113.034 376.41C110.397 375.163 107.795 373.883 105.229 372.57C102.662 371.257 100.114 369.923 97.5861 368.57C95.0385 367.183 92.491 365.763 89.9435 364.31C86.5425 362.31 83.2212 360.31 79.9795 358.31L77.916 356.99L76.1964 355.87C65.5916 348.968 55.5375 341.179 46.1325 332.58C42.0055 328.77 38.1173 324.88 34.5062 320.89C32.7484 318.97 31.0575 317.02 29.443 315.06C28.2584 313.64 27.112 312.2 26.0134 310.76C24.6951 309.07 23.434 307.35 22.1921 305.63C21.447 304.58 20.7305 303.52 20.0235 302.46C19.756 302.07 19.5077 301.69 19.2497 301.3C14.1986 293.621 9.99997 285.364 6.73501 276.69C2.94214 266.658 0.716442 256.052 0.143298 245.28C0.0477661 243.55 0 241.82 0 240.08C0.0312829 227.455 2.34906 214.951 6.83055 203.23C9.27628 196.738 12.2687 190.487 15.7724 184.55C16.1067 183.98 16.4411 183.41 16.785 182.85C23.141 172.508 30.6271 162.977 39.0917 154.45C45.5774 147.861 52.4741 141.731 59.7362 136.1C61.6469 134.6 63.6085 133.12 65.621 131.66C67.8756 130 70.1811 128.373 72.5375 126.78C81.6873 120.562 91.1631 114.887 100.92 109.78C127.583 95.78 158.555 84.25 192.631 75.92C212.765 71.0361 233.15 67.3635 253.686 64.92C271.082 62.83 289.032 61.52 307.327 61.06C312.199 60.94 317.1 60.88 322.029 60.88C326.959 60.88 331.945 60.9433 336.99 61.07C359.085 61.6133 381.134 63.4596 403.031 66.6C406.164 67.05 409.288 67.53 412.384 68.03C422.898 69.7433 433.194 71.7333 443.269 74C446.154 74.6667 449.02 75.3333 451.867 76L453.978 76.52C455.583 76.92 457.188 77.33 458.755 77.75C463.57 79.0033 468.321 80.3367 473.008 81.75C474.881 82.31 476.74 82.8733 478.587 83.44C480.383 84 482.16 84.56 483.927 85.14C487.316 86.24 490.663 87.3733 493.968 88.54C514.841 95.7661 535.046 104.957 554.335 116C556.016 116.967 557.678 117.967 559.321 119C566.162 123.147 572.648 127.48 578.781 132C580.424 133.2 582.039 134.413 583.625 135.64C588.363 139.313 592.853 143.08 597.095 146.94L597.62 147.42C603.311 152.623 608.678 158.201 613.689 164.12C618.707 170.02 623.262 176.334 627.312 183C627.636 183.53 627.952 184.06 628.267 184.6C632.422 191.623 635.851 199.088 638.498 206.87C641.6 215.993 643.415 225.54 643.886 235.21C643.953 236.47 643.992 237.73 644.001 239C644.039 239.36 644.039 239.72 644.039 240.08Z" fill="url(#paint0_linear_6_400)"/>
<path fill-rule="evenodd" clip-rule="evenodd" d="M578.781 131.93C572.661 127.43 566.174 123.097 559.321 118.93C557.678 117.93 556.016 116.93 554.335 115.93C535.039 104.889 514.828 95.7018 493.949 88.48C490.643 87.3067 487.297 86.1734 483.908 85.08C482.141 84.5 480.364 83.94 478.568 83.38C476.772 82.82 474.861 82.25 472.989 81.69C468.308 80.31 463.557 78.9767 458.736 77.69C457.15 77.27 455.545 76.86 453.959 76.46L451.867 76.05C446.699 80.41 441.683 85.05 436.849 89.37C435.451 90.6319 433.926 91.7316 432.302 92.65C432.227 92.7101 432.143 92.7573 432.053 92.79C427.21 95.48 421.736 96.39 415.717 95.97C394.882 94.51 367.493 76.97 337.028 61.08C332.073 60.9534 327.086 60.89 322.067 60.89C317.049 60.89 312.148 60.95 307.365 61.07C289.042 61.53 271.12 62.84 253.724 64.93C250.581 67.68 247.151 70.51 243.215 73.31C229.955 82.83 212.482 81.18 192.583 75.94C158.526 84.27 127.554 95.78 100.872 109.8C91.1152 114.907 81.6394 120.582 72.4897 126.8C70.1268 128.4 67.8213 130.027 65.5731 131.68C63.567 133.14 61.6054 134.62 59.6884 136.12C59.6227 138.291 59.7796 140.464 60.1565 142.6C61.1128 147.894 62.6849 153.046 64.8376 157.94C65.3343 159.13 65.8597 160.34 66.4425 161.57C66.6527 162.04 66.8724 162.52 67.1017 163C67.3309 163.48 67.5793 164 67.8182 164.41C68.397 165.531 69.1061 166.572 69.9294 167.51C73.6456 171.59 77.8204 169.23 84.6891 163.91C86.4565 162.55 88.3767 160.99 90.5357 159.31C95.7143 155.175 101.1 151.333 106.671 147.8C108.582 146.587 110.629 145.37 112.814 144.15C125.233 137.21 141.387 130.5 163.006 126.53C167.544 125.69 172.33 124.97 177.336 124.4C197.341 122.12 212.54 121.3 225.637 121.65C233.57 121.823 241.485 122.5 249.339 123.68C259.666 125.24 269.706 127.59 281.409 130.53L281.581 130.58C285.593 131.58 289.806 132.67 294.287 133.82C302.273 135.82 311.138 138.08 321.322 140.45L325.401 141.39L329.223 142.24C331.439 142.75 333.722 143.24 336.072 143.76L340.687 144.76L346.065 145.9L350.775 146.9L357.462 148.24L359.602 148.66C362.29 149.18 365.047 149.703 367.875 150.23L371.696 150.94L379.176 152.29C383.151 152.957 387.265 153.667 391.519 154.42L395.503 155C396.783 155.21 398.034 155.42 399.324 155.61L400.413 155.79C409.556 157.25 417.733 158.44 425.061 159.38L428.003 159.74H427.984C432.808 160.33 437.241 160.81 441.358 161.18C447.568 161.76 453.004 162.11 457.809 162.25H458.554C463.444 162.422 468.339 162.316 473.218 161.93C480.499 161.464 487.653 159.716 494.379 156.76L495.057 156.46L496.07 156.01C502.805 153.01 509.282 149.5 521.481 147.11C525.455 146.33 530.079 145.67 535.429 145.17C539.986 144.75 545.125 144.45 550.962 144.3C556.957 144.225 562.939 143.71 568.865 142.76C577.386 141.25 581.972 138.76 583.615 135.5C582.036 134.32 580.424 133.13 578.781 131.93Z" fill="#B1DCEC"/>
<path fill-rule="evenodd" clip-rule="evenodd" d="M597.076 146.87C591.774 155.23 576.708 161.15 549.721 163.87C547.81 164.07 545.842 164.25 543.817 164.41C540.632 164.67 537.314 164.883 533.862 165.05C530.538 165.223 527.07 165.353 523.459 165.44C521.134 165.5 518.924 165.583 516.829 165.69C512.501 165.9 508.613 166.21 505.097 166.59C501.84 166.94 498.897 167.36 496.213 167.83C491.139 168.687 486.142 169.981 481.272 171.7C471.556 175.19 466.101 179.26 455.812 181.58C450.406 182.73 444.907 183.343 439.39 183.41H439.209C431.582 183.527 423.955 183.23 416.358 182.52C414.781 182.38 413.157 182.24 411.476 182.07L408.094 181.71C405.674 181.463 403.142 181.177 400.499 180.85C395.665 180.25 390.449 179.55 384.813 178.73L382.052 178.32L380.218 178.04C375.123 177.267 369.709 176.4 363.977 175.44L361.111 174.96L358.828 174.56C332.347 170.01 311.597 165.65 294.535 161.68C292.825 161.29 291.153 160.89 289.51 160.5C270.595 156.01 256.332 152.08 243.55 149.07L240.206 148.29C214.355 142.41 193.558 140.48 149.985 145.44C140.623 146.51 131.834 148 123.609 149.8C122.252 150.09 120.915 150.4 119.597 150.71C109.811 153.012 100.151 155.866 90.66 159.26C86.9852 160.593 83.46 161.927 80.0846 163.26C76.5881 164.65 73.2445 166.06 70.0633 167.45L67.6558 168.51C60.4145 171.72 53.9948 174.8 48.3201 177.44C39.8656 181.37 33.035 184.32 27.6279 185.24C23.1379 186.01 19.6032 185.39 16.871 182.8C23.2269 172.458 30.7131 162.927 39.1777 154.4C45.6372 147.832 52.5051 141.718 59.7362 136.1C61.6469 134.6 63.6085 133.12 65.621 131.66C67.8756 130 70.1811 128.373 72.5375 126.78C87.2973 127.7 99.5731 128.73 99.5731 128.73C105.787 123.246 112.388 118.262 119.32 113.82C137.776 101.82 166.837 87.68 196.194 92.5C214.04 95.43 226.621 103.92 236.786 112.5C241.362 116.36 245.451 120.25 249.301 123.66C256.313 129.85 262.551 134.47 269.592 134.52C273.165 134.52 276.929 133.4 281.113 130.68C281.199 130.637 281.279 130.584 281.352 130.52C281.743 130.27 282.135 130 282.536 129.71C287.617 125.954 292.493 121.904 297.143 117.58C299.579 115.37 302.015 113.13 304.47 110.91C324.675 92.59 346.428 75.47 381.727 92.49C393.334 98.2518 405.76 101.994 418.517 103.57C420.876 103.83 423.198 104.01 425.481 104.09C428.079 104.19 430.64 104.18 433.124 104.09C434.862 104.02 436.572 103.89 438.254 103.71C438.674 103.66 439.094 103.62 439.515 103.56C440.183 103.48 440.843 103.4 441.502 103.29C444.31 102.89 447.049 102.36 449.717 101.7L449.947 101.64C458.105 99.6108 465.963 96.4318 473.304 92.19C475.1 91.19 476.82 90.09 478.511 88.98C480.358 87.76 482.138 86.4967 483.851 85.19C487.239 86.29 490.586 87.4233 493.892 88.59C514.789 95.7956 535.02 104.97 554.335 116C556.016 116.967 557.678 117.967 559.321 119C566.162 123.147 572.648 127.48 578.781 132C580.425 133.2 582.039 134.413 583.625 135.64C588.363 139.267 592.847 143.01 597.076 146.87Z" fill="#B8FEFE"/>
<path fill-rule="evenodd" clip-rule="evenodd" d="M537.846 190.64L537.187 190.72L535.83 190.88C532.544 191.25 528.799 191.51 524.548 191.65H522.685C508.059 192 497.933 193.25 490.271 194.93C479.504 197.3 473.629 200.49 467.037 203.17C465.882 203.64 464.697 204.1 463.474 204.52C461.567 205.196 459.629 205.771 457.666 206.24C454.831 206.914 451.96 207.405 449.068 207.71L448.485 207.78C446.46 207.98 444.263 208.14 441.855 208.23C440.527 208.28 439.142 208.31 437.69 208.32C432.101 208.37 425.5 208.12 417.523 207.49C409.241 206.83 399.496 205.76 387.908 204.18H387.698C383.807 203.653 379.705 203.067 375.394 202.42C372.292 201.96 369.069 201.463 365.726 200.93L361.646 200.28L360.242 200.04L357.882 199.66C351.195 198.57 344.947 197.49 339.005 196.43C316.947 192.49 299.579 188.76 285.087 185.43C275.457 183.21 267.089 181.17 259.475 179.36C240.999 174.95 226.879 171.88 209.559 170.89C204.783 170.61 199.729 170.49 194.274 170.56C193.004 170.56 191.723 170.56 190.405 170.63H190.329C186.45 170.73 182.371 170.91 178.024 171.18C174.279 171.42 170.327 171.723 166.169 172.09L162.596 172.42C160.217 172.64 157.771 172.89 155.24 173.16L154.112 173.29C140.062 174.839 126.143 177.487 112.47 181.21C105.315 183.21 98.6465 185.29 92.4083 187.48H92.3414C84.374 190.29 77.19 193.2 70.7129 195.96C56.6506 201.96 45.8746 207.26 37.8594 209.34C29.8443 211.42 24.5518 210.34 21.1891 203.69C19.5688 200.485 18.2875 197.105 17.3678 193.61C16.5798 190.632 16.0931 187.575 15.9157 184.49C15.8584 183.49 15.8393 182.56 15.8584 181.62C16.188 182.036 16.5455 182.427 16.9283 182.79C23.2843 172.448 30.7704 162.917 39.2351 154.39C48.3966 153.11 55.5997 147.52 60.3477 142.53C62.7989 139.987 64.9801 137.174 66.8534 134.14C66.4443 133.319 66.0807 132.475 65.7643 131.61C68.0189 129.95 70.3244 128.323 72.6809 126.73C81.8306 120.512 91.3064 114.837 101.063 109.73C107.235 110.8 113.378 112.19 119.453 113.73C134.662 117.63 149.441 122.61 163.207 126.41C185.619 132.6 205.365 135.65 219.934 125.81C222.036 124.39 224.004 122.95 225.867 121.53C229.975 118.38 233.509 115.28 236.91 112.43C252.062 99.59 262.943 91.85 298.719 108.09L298.958 108.2C300.869 109.06 302.78 109.94 304.623 110.83C315.294 115.83 325.64 121.27 335.48 126.31L339.607 128.4C342.626 129.93 345.607 131.4 348.53 132.84L349.6 133.36C355.809 136.36 361.78 139.06 367.455 141.24C368.897 141.79 370.321 142.31 371.716 142.79C375.925 144.282 380.24 145.422 384.622 146.2C390.593 147.2 396.086 147.2 401.034 145.72C404.466 144.756 407.668 143.053 410.435 140.72C415.355 136.56 420.466 132.12 425.72 127.95C428.777 125.54 431.891 123.24 435.053 121.13C437.9 119.221 440.854 117.495 443.9 115.96L444.587 115.62C445.361 115.25 446.145 114.89 446.928 114.55C455.755 110.74 464.917 109.43 474.336 112.79C476.639 113.626 478.862 114.688 480.976 115.96C484.134 117.87 487.09 120.126 489.793 122.69C490.624 123.47 491.503 124.26 492.42 125.06C497.598 129.59 503.999 134.41 510.715 139.32C514.278 141.91 517.937 144.53 521.539 147.14C524.022 148.93 526.478 150.72 528.866 152.48C534.397 156.58 539.575 160.59 543.874 164.39C544.915 165.31 545.899 166.22 546.826 167.11C558.586 178.49 560.774 187.56 537.846 190.64Z" fill="#86CDEB"/>
<path fill-rule="evenodd" clip-rule="evenodd" d="M371.62 142.88C370.966 138.822 369.354 135 366.93 131.76C364.506 128.521 361.347 125.966 357.741 124.329C354.134 122.691 350.194 122.023 346.278 122.385C342.362 122.747 338.595 124.127 335.318 126.4C334.373 127.054 333.473 127.776 332.624 128.56C328.97 131.932 326.42 136.42 325.335 141.39C325.169 142.109 325.042 142.837 324.952 143.57C324.35 147.977 324.911 152.473 326.576 156.57C327.615 159.112 329.048 161.457 330.818 163.51C332.901 165.932 335.422 167.897 338.236 169.292C341.05 170.686 344.099 171.483 347.209 171.636C350.319 171.788 353.427 171.293 356.352 170.18C359.278 169.067 361.964 167.357 364.254 165.15C364.531 164.89 364.799 164.62 365.057 164.35C365.796 163.568 366.485 162.736 367.12 161.86C369.459 158.638 370.996 154.858 371.591 150.86C372.013 148.219 372.023 145.524 371.62 142.88ZM362.067 161.81L361.923 161.95C361.216 162.681 360.452 163.35 359.64 163.95C355.915 166.697 351.391 167.996 346.848 167.62C344.219 167.395 341.658 166.623 339.317 165.349C336.976 164.075 334.902 162.324 333.216 160.2C332.767 159.666 332.35 159.105 331.964 158.52C330.224 155.901 329.122 152.877 328.755 149.71C328.631 148.716 328.586 147.712 328.621 146.71C328.646 145.231 328.825 143.759 329.156 142.32C330.298 137.325 333.154 132.944 337.181 130.01C337.919 129.475 338.691 128.994 339.492 128.57C343.754 126.371 348.627 125.84 353.23 127.075C357.833 128.309 361.862 131.227 364.589 135.3C365.83 137.159 366.76 139.225 367.34 141.41C368.285 144.993 368.295 148.776 367.367 152.365C366.44 155.953 364.609 159.215 362.067 161.81Z" fill="#C0C0C0"/>
<path fill-rule="evenodd" clip-rule="evenodd" d="M367.33 141.33C366.751 139.145 365.821 137.079 364.579 135.22C361.853 131.147 357.823 128.229 353.221 126.995C348.618 125.76 343.745 126.291 339.483 128.49C338.682 128.914 337.909 129.395 337.171 129.93C333.144 132.864 330.289 137.245 329.146 142.24C328.816 143.679 328.636 145.151 328.611 146.63C328.577 147.632 328.622 148.636 328.745 149.63C329.112 152.797 330.214 155.821 331.955 158.44C332.34 159.025 332.758 159.586 333.206 160.12C334.893 162.244 336.967 163.995 339.308 165.269C341.649 166.543 344.209 167.315 346.839 167.54C351.381 167.916 355.906 166.617 359.631 163.87C360.443 163.27 361.206 162.601 361.914 161.87L362.057 161.73C364.613 159.127 366.452 155.852 367.38 152.248C368.308 148.644 368.291 144.845 367.33 141.25V141.33ZM361.407 151.41L356.239 155.2L358.436 158.49L358.198 158.67L355.255 160.83L353.077 157.58L349.705 160.05L347.794 161.45C347.718 161.33 347.641 161.21 347.555 161.1C347.24 160.64 346.915 160.2 346.6 159.75C346.525 159.64 346.454 159.527 346.39 159.41C346.255 159.186 346.137 158.952 346.036 158.71C345.962 158.553 345.901 158.389 345.855 158.22C345.799 158.051 345.757 157.877 345.731 157.7C345.702 157.589 345.682 157.475 345.673 157.36C345.668 157.28 345.668 157.2 345.673 157.12C345.673 156.92 345.673 156.72 345.673 156.51C345.673 155.82 345.75 155.13 345.778 154.44C345.778 153.44 345.855 152.35 345.893 151.31C345.893 151.07 345.893 150.83 345.893 150.59C345.893 149.91 345.893 149.22 345.893 148.53C345.893 147.65 345.893 146.77 345.893 145.89V145.82C345.893 144.63 345.893 143.44 345.96 142.25C345.96 141.82 345.96 141.39 345.96 140.75L340.515 144.75L337.868 146.69L335.9 143.76L335.165 142.66L340.39 138.83L338.107 135.43L341.26 133.12C341.986 134.19 342.693 135.26 343.495 136.46L348.272 132.93L348.721 132.6L349.342 133.45L349.657 133.9C349.858 134.19 350.04 134.494 350.202 134.81C350.287 134.961 350.364 135.118 350.431 135.28C350.488 135.41 350.536 135.53 350.584 135.66L350.641 135.85C350.669 135.914 350.688 135.981 350.698 136.05C350.734 136.154 350.759 136.261 350.775 136.37C350.815 136.544 350.84 136.721 350.851 136.9C350.861 137.073 350.861 137.247 350.851 137.42C350.851 137.54 350.851 137.67 350.851 137.79C350.737 139.54 350.67 141.29 350.622 143.05C350.622 144.32 350.574 145.58 350.555 146.85C350.555 148.5 350.498 150.16 350.46 151.85C350.46 152.24 350.46 152.62 350.46 153.2L357.252 148.2L358.494 147.29C358.799 147.74 359.086 148.18 359.392 148.62C360.156 149.52 360.748 150.43 361.407 151.41Z" fill="#969696"/>
<path fill-rule="evenodd" clip-rule="evenodd" d="M361.407 151.41L356.239 155.2L358.436 158.49L355.255 160.83L353.077 157.58L347.794 161.45C346.753 159.86 345.559 158.66 345.692 156.51C345.979 151.77 345.96 147.01 346.065 142.25C346.065 141.82 346.065 141.39 346.065 140.75L337.964 146.69L335.26 142.69L340.486 138.86L338.203 135.46L341.355 133.15C342.081 134.22 342.788 135.29 343.591 136.49L348.854 132.63C350.058 134.26 351.138 135.63 351.004 137.82C350.708 142.49 350.717 147.17 350.612 151.82C350.612 152.21 350.612 152.59 350.612 153.17L358.647 147.28L361.407 151.41Z" fill="#C0C0C0"/>
<path fill-rule="evenodd" clip-rule="evenodd" d="M493.509 163.92C493.509 163.92 510.438 131.61 462.49 139.02C414.542 146.43 368.123 174.36 340.419 155.63C312.715 136.9 308.951 116.44 261.624 137.92C214.298 159.4 172.913 190 149.909 170.5C126.905 151 99.6209 125.17 70.4836 152.5C41.3463 179.83 6.88783 227.61 84.9185 229.5C162.949 231.39 65.812 251.14 194.57 230.77C323.328 210.4 318.657 193.77 405.142 202.99C491.627 212.21 527.423 256.7 539.155 233.55C550.886 210.4 542.393 185.41 523.592 184.48C504.792 183.55 493.509 163.92 493.509 163.92Z" fill="#B1DCEC"/>
<path fill-rule="evenodd" clip-rule="evenodd" d="M584.265 230.31V229.88C584.053 226.091 583.216 222.37 581.791 218.88C580.087 214.583 577.209 210.91 573.518 208.32C570.492 206.281 566.997 205.134 563.401 205C558.432 204.695 553.604 203.163 549.31 200.53C545.006 197.9 541.135 194.56 537.846 190.64C536.187 188.722 534.685 186.661 533.356 184.48C534.052 183.042 534.628 181.543 535.075 180C536.327 175.89 537.263 169.74 533.872 165C531.904 162.29 528.493 160.07 522.838 159C517.889 158.09 511.212 158.09 502.308 159.47C500.97 159.68 499.643 159.9 498.305 160.14C497.14 160.34 495.965 160.56 494.799 160.79C493.28 161.09 491.771 161.4 490.252 161.73C478.788 164.23 467.572 167.58 456.73 170.86L448.437 173.36L446.775 173.86L446.498 173.94H446.412C441.635 175.37 436.993 176.72 432.417 177.94C427.487 179.22 422.701 180.31 418.087 181.1C415.832 181.48 413.625 181.8 411.457 182.03C410.1 182.17 408.772 182.28 407.445 182.36C404.848 182.52 402.245 182.52 399.649 182.36C394.523 182.107 389.485 180.873 384.784 178.72C384.058 178.39 383.351 178.02 382.654 177.63C382.195 177.37 381.699 177.1 381.288 176.82C380.877 176.54 380.6 176.39 380.266 176.16C375.606 172.954 371.116 169.485 366.815 165.77L365.124 164.35C364.169 163.52 363.213 162.71 362.258 161.93L362.086 161.78C360.777 160.69 359.497 159.63 358.265 158.64C354.551 155.547 350.408 153.066 345.979 151.28C341.504 149.633 336.752 148.972 332.022 149.34C330.981 149.4 329.92 149.5 328.812 149.64C327.704 149.78 326.338 150.02 324.991 150.28C322.822 150.71 320.529 151.28 318.074 152.03C312.412 153.796 306.863 155.937 301.461 158.44C299.13 159.5 296.815 160.577 294.516 161.67C292.605 162.59 290.695 163.51 288.784 164.45C278.6 169.45 268.77 174.62 259.408 179.35L255.587 181.24C229.793 194.08 207.821 202.7 192.698 193.24C191.856 192.717 191.045 192.139 190.271 191.51L189.717 191.06L189.603 190.97C184.004 186.23 178.139 181.13 172.092 176.51C170.601 175.37 169.101 174.26 167.582 173.2C167.067 172.83 166.541 172.47 166.016 172.11L164.917 171.37C156.596 165.87 147.922 161.82 138.961 161.26C129.675 160.67 120.084 163.84 110.301 173.02C108.964 174.273 107.525 175.55 105.983 176.85C101.923 180.28 97.2422 183.85 92.3032 187.5H92.2363C84.9568 192.87 77.1231 198.37 69.9582 203.73L68.1145 205.11C65.1052 207.38 62.2392 209.61 59.6121 211.79C57.9689 213.15 56.4118 214.49 54.9788 215.79C52.7307 217.789 50.6294 219.961 48.6928 222.29C43.1901 229.05 42.5596 234.65 50.8518 238.14C52.7849 238.921 54.7795 239.523 56.813 239.94C63.5979 241.258 70.4806 241.947 77.3811 242C79.6261 242 81.766 242.13 83.8008 242.22C96.4206 242.81 105.267 244.14 112.078 245.82C136.496 251.82 134.653 262.15 186.173 257.54C198.697 256.42 214.384 254.42 234.369 251.26C249.425 248.88 262.646 246.55 274.406 244.31C283.902 242.49 292.453 240.74 300.2 239.06L300.429 239.01C303.487 238.35 306.419 237.7 309.247 237.06C312.075 236.42 314.979 235.75 317.721 235.12C322.497 234.02 326.93 232.95 331.095 231.94L341.852 229.37C345.941 228.37 349.82 227.49 353.574 226.67C359.249 225.42 364.637 224.34 370.034 223.47C372.661 223.04 375.288 222.66 377.954 222.34C387.012 221.238 396.129 220.747 405.247 220.87C409.546 220.87 414.103 221.06 418.994 221.32C423.886 221.58 429.264 221.98 435.006 222.51C438.149 222.79 441.416 223.12 444.836 223.51L447.788 223.84C450.787 224.2 453.72 224.59 456.596 225.03C458.443 225.297 460.261 225.59 462.051 225.91C471.375 227.5 480.03 229.48 488.055 231.68C493.872 233.28 499.366 234.99 504.534 236.76C505.546 237.1 506.54 237.45 507.524 237.76C508.69 238.17 509.845 238.58 510.973 239C519.962 242.29 527.93 245.67 534.97 248.75C536.951 249.61 538.862 250.45 540.702 251.27C561.538 260.41 573.193 265.46 578.925 254C579.393 253.08 579.823 252.16 580.224 251.24C580.482 250.64 580.73 250.08 580.95 249.49C582.295 246.123 583.257 242.602 583.816 239C584.265 236.129 584.416 233.215 584.265 230.31Z" fill="#B1DCEC"/>
<path fill-rule="evenodd" clip-rule="evenodd" d="M487.357 298.86C487.357 298.86 555.519 307.66 570.222 308.86C584.924 310.06 598.308 311.47 586.844 283.86C575.38 256.25 605.196 225.26 570.222 211.86L487.357 298.86Z" fill="#278BE1"/>
<path fill-rule="evenodd" clip-rule="evenodd" d="M564.423 218.27L564.318 218.08C564.222 217.89 564.108 217.7 563.993 217.51C561.127 212.66 555.529 207.13 548.651 201.26C545.785 198.85 542.785 196.38 539.623 193.89C538.371 192.89 537.091 191.89 535.801 190.89C533.747 189.3 531.665 187.7 529.573 186.1L528.484 185.26C522.58 180.74 516.666 176.26 511.288 171.83C509.129 170.07 507.056 168.32 505.107 166.62C503.158 164.92 501.076 162.99 499.327 161.25L498.305 160.25C497.436 159.42 496.566 158.64 495.707 157.91C495.344 157.6 494.99 157.31 494.627 157.02L494.388 156.83C486.478 150.57 478.711 148.2 471.136 148.48C469.66 148.539 468.189 148.692 466.732 148.94C464.184 149.382 461.68 150.068 459.252 150.99C452.87 153.535 446.85 156.98 441.358 161.23C436.305 164.99 431.385 169.23 426.618 173.49C423.895 175.93 421.22 178.37 418.603 180.72C418.431 180.88 418.259 181.03 418.077 181.17C417.504 181.67 416.94 182.17 416.348 182.55C415.899 182.88 415.393 183.18 414.972 183.46C411.33 185.708 407.232 187.027 403.012 187.31C401.015 187.47 399.009 187.47 397.012 187.31C393.427 186.979 389.878 186.309 386.408 185.31C385.233 184.99 384.039 184.62 382.826 184.23C380.794 183.563 378.721 182.817 376.607 181.99C371.62 180 366.442 177.66 361.111 175C360.51 174.71 359.898 174.4 359.287 174.09C357.376 173.13 355.45 172.13 353.507 171.09C351.329 169.95 349.113 168.78 346.877 167.58C342.435 165.18 337.888 162.69 333.245 160.16L326.653 156.6C323.825 155.08 320.959 153.567 318.055 152.06C313.785 149.83 309.457 147.63 305.072 145.52C300.687 143.41 296.761 141.71 293.102 140.32C281.371 135.88 272.821 134.84 265.78 136.1C260.343 137.151 255.214 139.513 250.8 143C248.384 144.79 246.024 146.84 243.531 149.05C238.219 153.79 232.468 159.27 225.026 164.62C220.369 167.918 215.052 170.056 209.483 170.87C204.043 171.651 198.528 171.684 193.08 170.97C192.125 170.87 191.255 170.75 190.329 170.61H190.252C171.977 167.93 150.893 159.61 128.691 153.2C125.685 152.32 122.66 151.483 119.616 150.69C115.374 149.58 111.104 148.58 106.814 147.69C104.904 147.31 102.974 146.96 101.025 146.64C90.3829 144.89 82.8741 145.19 77.6676 146.73C71.8784 148.43 68.8978 151.65 67.5317 155.29C66.8295 157.265 66.5049 159.364 66.5763 161.47C66.5906 162.511 66.6736 163.551 66.8247 164.58C67.0198 165.894 67.2975 167.194 67.6559 168.47C68.1343 170.209 68.7543 171.902 69.5092 173.53C69.5092 173.53 71.9548 185.39 70.6747 195.93C70.4063 198.659 69.7628 201.333 68.764 203.87C68.6019 204.276 68.4201 204.673 68.2195 205.06C67.4317 206.816 66.2447 208.343 64.7625 209.508C63.2802 210.672 61.5479 211.439 59.7171 211.74C59.202 211.832 58.682 211.892 58.16 211.92C57.4339 211.92 56.7365 212.02 56.0583 212.1C50.183 212.81 46.1707 215.16 43.897 218.92C40.5725 224.39 40.9451 232.86 44.6326 243.57C45.2536 245.38 45.9796 247.24 46.7916 249.18C47.4795 250.82 48.2342 252.507 49.0557 254.24C49.3614 254.87 49.6576 255.46 50.0111 255.99C53.9088 262.92 57.8734 261.7 64.7039 256.67C69.4805 253.17 75.5564 247.84 83.9727 242.12C87.2304 239.9 90.8319 237.63 94.8347 235.38C97.8058 233.72 100.997 232.07 104.388 230.46C116.599 224.834 129.398 220.729 142.524 218.23C147.798 217.23 153.396 216.31 159.348 215.63C186.374 212.56 204.63 212.13 220.775 213.63C232.177 214.8 243.487 216.805 254.622 219.63C257.488 220.31 260.354 221.03 263.43 221.8C267.958 222.94 272.735 224.17 277.884 225.48C285.421 227.39 293.733 229.48 303.181 231.67L306.238 232.38C309.938 233.233 313.814 234.1 317.864 234.98C320.705 235.6 323.644 236.227 326.682 236.86C329.866 237.527 333.152 238.193 336.541 238.86C339.292 239.413 342.123 239.967 345.033 240.52C353.698 242.17 363.089 243.86 373.301 245.58C375.986 246.03 378.584 246.46 381.116 246.86C392.446 248.69 402.305 250.09 410.931 251.13C442.161 254.9 457.236 253.92 467.553 251.13C471.109 250.136 474.584 248.853 477.947 247.29L482.485 245.21C488.417 242.444 494.618 240.362 500.98 239C502.661 238.627 504.461 238.293 506.378 238L507.648 237.8C510.008 237.43 512.539 237.09 515.291 236.8L516.428 236.69C521.204 236.23 526.554 235.9 532.668 235.75C534.474 235.7 536.203 235.64 537.846 235.55C541.915 235.33 545.488 234.99 548.584 234.55L549.749 234.36C565.598 231.72 568.55 225.89 564.423 218.27Z" fill="#B1DCEC"/>
<path fill-rule="evenodd" clip-rule="evenodd" d="M189.908 203.25C187.831 207.014 184.734 210.05 181.009 211.973C177.285 213.896 173.099 214.622 168.981 214.057C164.864 213.493 160.998 211.664 157.872 208.801C154.746 205.939 152.501 202.171 151.419 197.974C150.337 193.776 150.468 189.337 151.794 185.218C153.12 181.098 155.583 177.482 158.871 174.826C162.159 172.17 166.125 170.594 170.268 170.295C174.412 169.997 178.547 170.99 182.151 173.15C184.553 174.589 186.659 176.51 188.35 178.803C190.04 181.097 191.282 183.717 192.002 186.513C192.723 189.31 192.909 192.228 192.55 195.1C192.19 197.972 191.293 200.742 189.908 203.25Z" fill="#C0C0C0"/>
<path fill-rule="evenodd" clip-rule="evenodd" d="M190.271 191.51C190.271 191.27 190.271 191.03 190.271 190.78C190.05 187.62 189.095 184.564 187.488 181.878C185.881 179.192 183.672 176.958 181.052 175.37L180.498 175.04C176.561 172.823 171.991 172.169 167.63 173.2C165.153 173.763 162.814 174.859 160.763 176.419C158.713 177.978 156.994 179.968 155.717 182.26C153.51 186.174 152.663 190.767 153.319 195.26C154.076 200.143 156.578 204.542 160.32 207.565C164.061 210.587 168.761 212.006 173.465 211.534C178.17 211.062 182.526 208.734 185.651 205.023C188.776 201.312 190.434 196.495 190.29 191.55L190.271 191.51ZM172.703 188.88C170.382 188.67 168.06 188.4 165.748 188.14C165.748 188.06 165.748 187.99 165.748 187.91L177.26 181.11L177.441 181.26L176.352 183.26C175.397 184.96 174.508 186.67 173.544 188.35C173.448 188.497 173.324 188.62 173.179 188.711C173.034 188.803 172.871 188.86 172.703 188.88ZM172.846 189.44C171.814 191.32 170.831 193.13 169.78 195.03L169.092 196.28L168.471 195.15C167.286 192.97 166.102 190.82 164.85 188.52L172.846 189.44ZM164.65 195.44C164.497 193.8 164.353 192.17 164.21 190.53L164.411 190.46L167.038 195.3L168.156 197.39C168.2 197.497 168.223 197.613 168.223 197.73C168.223 197.847 168.2 197.963 168.156 198.07C167.302 199.734 166.345 201.338 165.29 202.87L164.65 195.44ZM166.121 203.3L165.968 203.13C166.837 201.56 167.678 199.98 168.576 198.44C168.655 198.316 168.76 198.212 168.882 198.136C169.004 198.06 169.141 198.014 169.283 198C171.786 197.94 174.289 197.93 176.849 198.08L166.121 203.3ZM169.608 196.61L170.506 194.98L173.372 189.79L176.448 194.15L178.129 196.53L169.608 196.61ZM178.072 195.61L176.992 194C175.932 192.5 174.872 191 173.84 189.48C173.792 189.339 173.774 189.189 173.789 189.04C173.804 188.891 173.851 188.748 173.926 188.62C175.196 186.27 176.486 183.93 177.747 181.62H177.976C178.053 185.673 178.126 189.727 178.196 193.78V195.48L178.072 195.61Z" fill="#969696"/>
<path fill-rule="evenodd" clip-rule="evenodd" d="M165.729 187.91L177.241 181.11L177.422 181.26L176.333 183.26C175.378 184.96 174.489 186.67 173.525 188.35C173.434 188.5 173.314 188.627 173.172 188.724C173.03 188.821 172.87 188.884 172.703 188.91C170.382 188.7 168.06 188.43 165.748 188.17L165.729 187.91Z" fill="#C0C0C0"/>
<path fill-rule="evenodd" clip-rule="evenodd" d="M178.005 181.63C178.088 186.25 178.171 190.87 178.253 195.49L178.072 195.55C176.649 193.55 175.206 191.55 173.84 189.5C173.792 189.359 173.775 189.209 173.789 189.06C173.804 188.911 173.851 188.767 173.926 188.64C175.196 186.29 176.486 183.95 177.747 181.64L178.005 181.63Z" fill="#C0C0C0"/>
<path fill-rule="evenodd" clip-rule="evenodd" d="M164.85 188.52L172.846 189.44L169.092 196.28L164.85 188.52Z" fill="#C0C0C0"/>
<path fill-rule="evenodd" clip-rule="evenodd" d="M178.11 196.5L169.608 196.58L173.353 189.76L178.11 196.5Z" fill="#C0C0C0"/>
<path fill-rule="evenodd" clip-rule="evenodd" d="M164.411 190.43C165.662 192.74 166.923 195.05 168.156 197.36C168.2 197.467 168.223 197.583 168.223 197.7C168.223 197.817 168.2 197.933 168.156 198.04C167.302 199.704 166.345 201.308 165.29 202.84C164.927 198.727 164.56 194.613 164.191 190.5L164.411 190.43Z" fill="#C0C0C0"/>
<path fill-rule="evenodd" clip-rule="evenodd" d="M165.968 203.1C166.837 201.53 167.678 199.95 168.576 198.41C168.655 198.286 168.76 198.182 168.882 198.106C169.004 198.03 169.141 197.984 169.283 197.97C171.786 197.91 174.289 197.9 176.849 198.05L166.121 203.27L165.968 203.1Z" fill="#C0C0C0"/>
<path fill-rule="evenodd" clip-rule="evenodd" d="M580.998 249.49C580.998 250.07 580.921 250.65 580.854 251.24C580.205 257.696 578.44 263.974 575.648 269.77C570.537 280.5 560.917 277.77 544.629 270.38C538.601 267.65 531.665 264.27 523.698 260.69C521.338 259.64 518.921 258.56 516.361 257.49C511.45 255.41 506.196 253.3 500.579 251.25C499.251 250.77 497.894 250.25 496.519 249.81C492.048 248.25 487.348 246.74 482.428 245.33C481.039 244.93 479.635 244.54 478.215 244.16C470.906 242.16 463.102 240.42 454.781 238.98L450.854 238.33C447.154 237.75 443.361 237.237 439.476 236.79C433.821 236.15 428.538 235.62 423.589 235.2L422.013 235.07C415.326 234.53 409.279 234.2 403.642 234.07C400.089 233.97 396.707 233.95 393.459 234.01C382.407 234.152 371.385 235.259 360.51 237.32L356.965 238.01C355.408 238.32 353.851 238.65 352.265 239.01C349.883 239.53 347.463 240.083 345.005 240.67C340.591 241.72 335.996 242.88 331.095 244.12L321.599 246.54C315.753 248.03 309.438 249.61 302.493 251.28C293.522 253.44 283.492 255.72 272.028 258.11C268.786 258.777 265.426 259.443 261.949 260.11C251.087 262.26 239.021 264.48 225.551 266.75C223.112 267.157 220.74 267.547 218.434 267.92C193.529 271.92 175.684 273.92 162.395 274.56C144.445 275.39 134.796 273.69 127.277 271.04C117.982 267.78 111.925 263.04 97.4332 259.95C89.7906 258.31 79.9317 257.1 66.0318 256.75H64.6466C59.4496 256.61 54.552 256.383 49.9537 256.07C46.8267 255.87 43.8429 255.63 41.0024 255.35C33.7808 254.703 26.6008 253.621 19.4981 252.11C11.1773 250.31 4.77661 248 0.143298 245.28C0.0477661 243.55 0 241.82 0 240.08C0.0312829 227.455 2.34906 214.951 6.83055 203.23C10.1742 199.97 13.6611 196.76 17.2244 193.67C20.5967 190.75 24.0454 187.94 27.5419 185.29C36.0701 178.647 45.3062 173.063 55.0647 168.65C58.8446 166.984 62.7491 165.646 66.7387 164.65L67.866 164.38C71.8488 163.451 75.9324 163.084 80.0081 163.29C81.6118 163.366 83.2081 163.564 84.7848 163.88C89.96 164.874 94.79 167.29 98.7802 170.88C101.054 172.88 103.471 174.88 106.012 176.81C108.037 178.337 110.149 179.797 112.346 181.19C124.008 188.722 137.127 193.44 150.75 195C151.59 195.093 152.441 195.173 153.3 195.24C157.076 195.55 160.866 195.614 164.65 195.43C165.443 195.43 166.235 195.35 167.038 195.29L168.471 195.17C168.91 195.17 169.34 195.1 169.78 195.05L170.506 194.97C172.416 194.76 174.432 194.49 176.429 194.14L176.992 194.04C177.403 193.97 177.814 193.9 178.225 193.81C182.062 193.086 185.86 192.148 189.603 191L190.224 190.81C191.007 190.56 191.809 190.31 192.602 190.03C197.732 188.309 202.754 186.255 207.639 183.88C227.051 174.52 242.375 175.49 255.587 181.3C265.398 185.62 274.053 192.61 282.336 200.03L282.938 200.57C286.711 203.96 290.427 207.42 294.143 210.74C298.182 214.42 302.401 217.878 306.782 221.1C308.781 222.576 310.951 223.779 313.24 224.68C319.096 226.92 324.217 225.96 329.29 223.14C337.563 218.56 345.74 209.05 356.832 200.42L357.73 199.72C360.041 197.96 362.506 196.24 365.066 194.62C370.308 191.295 375.907 188.63 381.746 186.68C383.227 186.19 384.756 185.68 386.332 185.33C388.51 184.75 390.78 184.267 393.143 183.88C395.162 183.553 397.178 183.31 399.19 183.15C401.779 182.94 404.368 182.88 406.938 182.93C409.508 182.98 412.269 183.18 414.896 183.49C421.773 184.321 428.556 185.851 435.149 188.06C437.48 188.83 439.773 189.66 442.008 190.55C447.331 192.648 452.536 195.058 457.599 197.77C459.146 198.597 460.65 199.437 462.108 200.29C463.799 201.29 465.432 202.29 467.009 203.22C470.639 205.48 473.935 207.71 476.81 209.77C481.327 212.951 485.671 216.393 489.822 220.08C489.822 220.08 493.548 219.77 499.375 219.33C508.107 218.68 521.567 217.74 534.187 217.17C537.645 217.02 541.037 216.89 544.247 216.8C550.341 216.63 555.796 216.61 559.837 216.8C561.247 216.871 562.646 217.096 564.012 217.47C564.241 217.52 564.471 217.59 564.7 217.66L564.901 217.73C571.97 220.05 577.081 226.39 579.498 234.73C579.562 234.93 579.619 235.13 579.67 235.33C579.999 236.521 580.267 237.729 580.472 238.95C581.055 242.428 581.232 245.967 580.998 249.49Z" fill="#278BE1"/>
<path fill-rule="evenodd" clip-rule="evenodd" d="M523.803 286.39L522.188 286.51C519.59 286.7 516.752 286.84 513.667 286.91C507.725 287.05 502.537 287.34 497.942 287.75C469.722 290.27 464.363 297.22 450.52 301.03C445.017 302.465 439.384 303.28 433.716 303.46C420.447 304.08 400.7 302.76 367.942 297.91C364.331 297.37 360.561 296.79 356.631 296.17C347.794 294.77 339.588 293.39 331.936 292.03C304.757 287.22 284.581 282.72 268.178 278.84C256.972 276.2 247.524 273.84 238.792 271.9C231.675 270.31 225.036 268.98 218.31 267.97C201.726 265.48 184.616 264.97 158.583 267.18C156.95 267.32 155.278 267.47 153.568 267.64L149.298 268.05L146.088 268.39C139.483 269.103 133.175 270.003 127.163 271.09C117.533 272.79 108.639 274.91 100.414 277.25C79.7312 283.13 63.3283 290.4 50.4219 296.1H50.3646C37.9455 301.58 28.7744 305.6 22.1731 305.52C21.4279 304.47 20.7115 303.41 20.0045 302.35C19.737 301.96 19.4886 301.58 19.2307 301.19C14.1933 293.545 10.0012 285.325 6.73511 276.69C6.91662 265.6 11.5786 256.24 19.3836 252.12C21.9536 250.764 24.7714 250 27.6471 249.88C33.7101 249.485 39.5484 247.331 44.5085 243.66C46.7745 242.05 48.8918 240.222 50.8327 238.2C53.446 235.556 55.7603 232.607 57.7302 229.41C57.0985 228.123 56.565 226.785 56.1348 225.41C55.062 222.339 54.6604 219.055 54.9597 215.8C55.1007 214.537 55.4228 213.303 55.915 212.14C57.5391 208.39 61.2266 205.14 68.6208 203.91L69.9201 203.72C74.6967 203.1 80.8107 203.24 88.7303 204.46C107.158 207.31 125.367 213.19 142.372 218.28C169.598 226.45 193.739 232.6 210.792 221.07C214.431 218.61 217.66 216.07 220.622 213.7C239.031 198.7 247.371 186.32 282.298 200.24L282.947 200.5C285.055 201.353 287.265 202.303 289.577 203.35C293.558 205.163 297.5 207.027 301.404 208.94C307.499 211.94 313.47 214.94 319.297 217.94C322.689 219.67 325.984 221.39 329.299 223.05C331.583 224.21 333.847 225.35 336.073 226.45C338.041 227.43 339.986 228.38 341.91 229.3C347.575 232.01 353.02 234.45 358.236 236.45L360.414 237.26C362.076 237.87 363.7 238.43 365.315 238.94C377.543 242.78 388.243 243.57 396.841 238.94C398.417 238.105 399.906 237.099 401.283 235.94L403.547 234.03C408.534 229.78 413.712 225.33 419.061 221.27C425.749 216.16 432.742 211.65 439.935 208.9C440.537 208.67 441.129 208.45 441.741 208.25C443.924 207.502 446.16 206.933 448.428 206.55C448.829 206.48 449.221 206.42 449.622 206.37C452.237 206.028 454.88 205.991 457.503 206.26C459.793 206.5 462.053 206.986 464.248 207.71C467.716 208.868 471.017 210.517 474.059 212.61C476.374 214.197 478.568 215.969 480.622 217.91C483.402 220.52 486.66 223.24 490.175 226.02L491.866 227.33C495.831 230.39 500.111 233.52 504.467 236.68L506.187 237.92L507.629 238.92C513.361 243.04 519.093 247.17 524.347 251.19C525.962 252.42 527.529 253.64 529.028 254.84C536.021 260.45 541.667 265.73 544.428 270.33C549.53 278.55 545.431 284.55 523.803 286.39Z" fill="#B8FEFE"/>
<path fill-rule="evenodd" clip-rule="evenodd" d="M526.287 303.78C526.163 309.886 524.863 315.903 522.465 321.47C521.994 322.59 521.478 323.71 520.918 324.83C517.756 331.09 512.826 332.41 505.633 330.83C500.531 329.7 494.293 327.12 486.717 323.83L486.392 323.69C477.231 319.69 466.13 314.6 452.775 309.69C446.89 307.54 440.566 305.43 433.773 303.47C418.444 299.036 402.785 295.961 386.962 294.28C384.039 293.97 381.231 293.69 378.508 293.43C359.268 291.63 344.795 291.27 332.032 292.04C324.024 292.533 316.05 293.505 308.148 294.95C299.551 296.49 290.867 298.52 280.817 300.95L278.085 301.6L277.588 301.72L270.318 303.47H270.241L263.019 305.17L257.65 306.43L252.625 307.57L249.53 308.27L244.4 309.4C239.623 310.45 234.493 311.53 229.048 312.63L223.383 313.77L221.826 314.07C208.766 316.63 193.835 319.3 176.477 322.07C165.825 323.76 156.711 325.17 148.925 326.34C62.5736 339.29 138.417 322.5 66.8248 320.8C54.7782 320.51 45.416 319.13 38.2989 316.89C35.6391 316.082 33.0579 315.014 30.5895 313.7C29.0122 312.855 27.5179 311.85 26.1281 310.7C24.8098 309.01 23.5487 307.29 22.3068 305.57C21.5617 304.52 20.8452 303.46 20.1382 302.4C19.9663 301.92 19.823 301.4 19.6988 300.96C16.3074 287.79 27.542 270.26 41.0216 255.38C42.9322 253.29 44.8428 251.25 46.8013 249.29C48.7597 247.33 50.5461 245.58 52.3994 243.84C53.8026 242.485 55.2692 241.203 56.7939 240C69.9009 230.06 82.5876 230.4 94.6628 235.48C100.827 238.218 106.67 241.687 112.078 245.82C115.011 247.99 117.896 250.28 120.734 252.62C124.478 255.71 128.137 258.86 131.691 261.86C136.726 266.11 142.639 267.98 149.298 268.06C150.778 268.06 152.307 268.01 153.874 267.87C155.44 267.73 156.988 267.49 158.593 267.19C166.952 265.63 176.2 262.11 186.173 257.54C203.455 249.63 222.867 238.6 243.406 229.28C249.834 226.261 256.49 223.806 263.306 221.94C268.333 220.533 273.535 219.936 278.734 220.17C288.679 220.8 295.491 225.52 303.057 231.81L305.158 233.58L309.266 237.06C310.03 237.71 310.804 238.36 311.597 239.01C312.39 239.66 312.982 240.14 313.699 240.72C316.097 242.64 318.676 244.59 321.504 246.54L322.173 246.99C324.931 248.848 327.925 250.292 331.067 251.28C335.267 252.566 339.616 253.24 343.992 253.28C350.623 253.342 357.242 252.672 363.739 251.28C369.28 250.17 375.05 248.69 381.001 247.01C389.599 244.58 398.665 241.72 407.922 239.01C412.546 237.65 417.218 236.32 421.946 235.1L424.144 234.54C430.774 232.87 437.518 231.42 444.205 230.38C449.088 229.562 454.031 229.203 458.975 229.31C470.773 229.74 475.712 234.03 477.384 239.01C477.925 240.676 478.171 242.431 478.11 244.19C478.085 245.281 477.977 246.368 477.785 247.44C477.557 248.743 477.237 250.026 476.83 251.28C476.715 251.62 476.61 251.95 476.505 252.28C476.141 253.308 475.714 254.31 475.225 255.28C475.225 255.28 486.507 274.83 505.308 275.76C506.5 275.816 507.686 275.976 508.852 276.24C511.626 276.89 514.24 278.141 516.525 279.911C518.81 281.682 520.717 283.933 522.121 286.52C525.02 291.754 526.463 297.733 526.287 303.78Z" fill="#B1DCEC"/>
<path fill-rule="evenodd" clip-rule="evenodd" d="M562.56 308.1C559.035 301.25 553.007 296.7 545.183 296.31C536.203 295.86 528.942 291.17 523.803 286.39C520.457 283.3 517.529 279.747 515.1 275.83C516.476 273.025 517.399 270.001 517.832 266.88C518.356 263.678 517.834 260.384 516.351 257.53C514.889 254.93 512.281 252.67 507.935 251.29C504.206 250.202 500.34 249.716 496.471 249.85C492.312 249.91 488.162 250.274 484.052 250.94L481.883 251.29C480.097 251.59 478.329 251.91 476.552 252.29C431.308 261.17 388.243 285.29 361.99 267.59C354.768 262.71 349.17 257.7 344.002 253.36C343.171 252.66 342.358 251.98 341.546 251.36C338.293 248.594 334.771 246.195 331.038 244.2C325.658 241.49 319.689 240.317 313.737 240.8C309.168 241.143 304.649 242.005 300.257 243.37C294.45 245.159 288.76 247.344 283.224 249.91C279.623 251.54 276.059 253.23 272.534 254.91C269.009 256.59 265.379 258.43 261.873 260.2C253.934 264.2 246.234 268.2 238.849 271.94C210.658 286.05 186.975 295.49 171.528 282.45C168.528 279.92 165.462 277.27 162.319 274.65C159.567 272.35 156.768 270.07 153.912 267.9L153.616 267.68C143.241 259.8 132.245 253.37 120.781 252.68C113.139 252.2 105.334 254.24 97.3568 260.07C95.5276 261.417 93.7763 262.876 92.1121 264.44C89.7429 266.66 87.0202 268.96 84.0683 271.32C74.0756 279.32 61.3985 287.95 50.4601 296.17H50.4028C42.0915 302.41 34.8024 308.42 30.5034 313.72C30.1309 314.17 29.7869 314.61 29.4717 315.05C31.0862 317.05 32.7771 318.96 34.5349 320.88C38.146 324.88 42.0342 328.76 46.1611 332.57C49.8964 332.99 54.2241 333.26 59.2013 333.38C91.6058 334.15 101.961 339.38 112.212 343.79C124.115 348.91 135.885 352.91 181.865 347.47C191.647 346.31 202.987 344.73 216.199 342.64L219.151 342.17L222.179 341.68L224.692 341.27C230.748 340.27 236.49 339.27 241.954 338.27C245.002 337.73 247.954 337.19 250.829 336.66C254.708 335.94 258.437 335.227 262.016 334.52C265.2 333.893 268.289 333.273 271.283 332.66C274.97 331.9 278.502 331.157 281.877 330.43L285.364 329.67L290.876 328.45C296.503 327.18 301.719 325.97 306.591 324.81C320.462 321.52 331.64 318.71 342.206 316.58L344.365 316.16C367.034 311.76 387.497 310.63 426.713 314.83C428.579 315.03 430.423 315.247 432.245 315.48C457.206 318.712 481.666 325.297 505.021 335.07C506.932 335.87 508.842 336.66 510.686 337.44C516.6 339.95 521.93 342.35 526.726 344.44C544.877 352.38 555.386 356.02 560.726 345.38C564.05 338.959 565.882 331.81 566.076 324.51C566.273 318.814 565.062 313.162 562.56 308.1Z" fill="#B1DCEC"/>
<path fill-rule="evenodd" clip-rule="evenodd" d="M576.326 350C569.238 355.08 561.678 359.93 553.647 364.55C553.953 365.262 554.224 365.989 554.459 366.73L552.443 365.24C549.004 367.24 545.469 369.13 541.868 371C524.624 363.74 499.49 350.93 463.656 343.48C455.354 341.75 446.46 340.31 436.993 339.29C396.869 334.99 376.33 336.29 353.001 340.94C334.611 344.61 314.473 350.37 281.552 357.13C277.96 357.87 274.212 358.617 270.308 359.37H270.193C263.506 360.68 256.303 362.01 248.546 363.37H248.412C244.811 364 241.104 364.64 237.254 365.28C233.758 365.86 230.153 366.443 226.44 367.03C142.371 380.33 134.404 373.1 117.304 365.98L115.25 365.14C114.295 364.75 113.263 364.37 112.202 363.99C107.527 362.353 102.736 361.105 97.8726 360.26C95.7327 359.88 93.4113 359.52 90.8797 359.21C87.622 358.81 84.0205 358.47 79.9986 358.21L77.9351 356.89L76.2155 355.77C65.6107 348.868 55.5566 341.079 46.1515 332.48C42.0246 328.67 38.1364 324.78 34.5253 320.79C32.7675 318.87 31.0766 316.92 29.4621 314.96C28.2775 313.54 27.1311 312.1 26.0325 310.66C24.7141 308.97 23.4531 307.25 22.2112 305.53C21.466 304.48 20.7495 303.42 20.0426 302.36C19.7751 301.97 19.5267 301.59 19.2688 301.2L19.6032 300.92C40.3432 283.61 64.5701 269.82 84.0682 271.25C89.9627 271.582 95.6453 273.663 100.452 277.25C100.891 277.57 101.321 277.92 101.751 278.25C124.774 297.7 161.602 311.7 208.919 290.25C232.917 279.36 250.543 283.56 265.713 292.8C269.997 295.442 274.114 298.371 278.037 301.57L278.419 301.88C287.972 309.58 296.962 318.25 306.524 324.72L306.648 324.8C308.562 326.115 310.618 327.189 312.772 328C315.481 329.016 318.379 329.359 321.236 329C328.344 328.12 334.754 322.91 342.253 316.52L343.553 315.42C350.354 309.6 358.083 302.98 368.009 297.86C371.401 296.093 374.913 294.592 378.517 293.37C382.755 291.932 387.101 290.871 391.51 290.2C412.68 286.93 433.668 293.08 450.539 300.98C454.876 302.98 458.936 305.15 462.662 307.29C471.001 312.011 478.943 317.464 486.402 323.59L486.574 323.74H486.727C487.968 323.64 496.671 322.97 507.744 322.27C512.358 321.98 517.402 321.68 522.484 321.42C534.999 320.78 547.8 320.35 555.443 320.73C559.262 320.879 562.959 322.174 566.095 324.46C572.963 329.52 576.775 339.07 576.326 350Z" fill="#B8FEFE"/>
<path fill-rule="evenodd" clip-rule="evenodd" d="M554.459 366.73L552.443 365.24C549.004 367.24 545.469 369.13 541.868 371C527.499 378.429 512.69 384.886 497.531 390.33C477.47 381.99 451.15 372.77 416.816 369.09C330.321 359.83 335.022 376.5 206.235 396.87C196.261 398.45 187.358 399.74 179.39 400.77C157.327 394.787 135.765 386.938 114.916 377.3L113.005 376.41C110.368 375.163 107.767 373.883 105.2 372.57C102.633 371.257 100.086 369.923 97.5574 368.57C95.0099 367.183 92.4624 365.763 89.9148 364.31C86.5139 362.31 83.1926 360.31 79.9508 358.31L77.8873 356.99L76.1678 355.87C65.563 348.968 55.5089 341.179 46.1038 332.58C41.9768 328.77 38.0887 324.88 34.4775 320.89C35.6908 319.55 36.9232 318.22 38.1555 316.89C43.5435 311.19 48.9698 305.89 53.7464 301.45C78.3937 278.37 121.985 305.62 148.782 326.34C153.673 330.13 158.01 333.7 161.564 336.7C174.938 347.96 194.398 342.45 217.632 331.64C218.32 331.32 219.007 331 219.705 330.64C220.889 330.09 222.084 329.51 223.287 328.93C228.408 326.44 233.691 323.75 239.107 320.93C245.336 317.74 251.756 314.43 258.319 311.18C259.523 310.58 260.736 309.98 261.959 309.39C265.159 307.83 268.397 306.28 271.665 304.79L271.98 304.65L273.231 304.07C274.83 303.35 276.378 302.683 277.874 302.07L278.314 301.89C279.107 301.55 279.9 301.24 280.664 300.89C292.261 296.28 300.917 294.58 307.996 294.89C322.593 295.6 330.446 305.01 343.428 315.42L344.288 316.1C346.657 317.98 349.199 319.88 351.988 321.76C371.467 334.92 400.184 325.03 432.168 315.42C438.855 313.42 445.724 311.42 452.66 309.63C455.937 308.79 459.232 308 462.538 307.29C466.359 306.463 470.2 305.747 474.059 305.14C506.406 300.14 509.234 313.22 507.648 322.27C507.15 324.977 506.288 327.596 505.088 330.05C505.088 330.05 505.231 330.31 505.527 330.76C506.735 332.638 508.063 334.429 509.501 336.12C509.855 336.53 510.218 336.95 510.61 337.38C515.568 342.89 523.717 349.63 534.33 350.47C534.61 350.47 534.887 350.49 535.161 350.53C543.759 350.96 550.236 356.45 553.551 364.53C553.89 365.246 554.193 365.981 554.459 366.73Z" fill="#278BE1"/>
<path fill-rule="evenodd" clip-rule="evenodd" d="M285.077 326.53C286.005 332.899 285.108 339.413 282.499 345.248C279.89 351.083 275.686 355.977 270.42 359.31C265.153 362.644 259.06 364.268 252.912 363.977C246.763 363.686 240.836 361.493 235.878 357.674C230.921 353.856 227.157 348.585 225.062 342.527C222.967 336.469 222.635 329.897 224.109 323.642C225.582 317.387 228.795 311.73 233.34 307.386C237.886 303.043 243.56 300.208 249.645 299.24C257.8 297.943 266.114 300.089 272.758 305.206C279.403 310.324 283.834 317.994 285.077 326.53Z" fill="#EDC566"/>
<path fill-rule="evenodd" clip-rule="evenodd" d="M281.543 324C282.471 330.369 281.573 336.883 278.964 342.718C276.355 348.553 272.151 353.447 266.885 356.78C261.618 360.114 255.525 361.738 249.377 361.447C243.229 361.156 237.301 358.963 232.344 355.144C227.386 351.326 223.622 346.055 221.527 339.997C219.432 333.939 219.1 327.367 220.574 321.112C222.047 314.857 225.26 309.2 229.806 304.856C234.351 300.513 240.025 297.678 246.11 296.71C254.265 295.413 262.579 297.559 269.224 302.676C275.868 307.794 280.299 315.464 281.543 324Z" fill="#EDC566"/>
<path fill-rule="evenodd" clip-rule="evenodd" d="M290.895 328.44C290.828 327.54 290.723 326.64 290.59 325.74C289.332 316.475 284.823 308.033 277.941 302.06L277.502 301.69C273.866 298.6 269.704 296.259 265.235 294.79C259.844 293.008 254.129 292.566 248.546 293.5C242.843 294.482 237.441 296.856 232.777 300.429C228.113 304.003 224.319 308.676 221.701 314.07C219.028 319.496 217.639 325.515 217.651 331.62C217.663 333.353 217.784 335.084 218.014 336.8C219.258 345.895 223.597 354.215 230.232 360.23C232.39 362.202 234.755 363.91 237.283 365.32C242.607 368.26 248.54 369.784 254.559 369.758C260.578 369.731 266.499 368.155 271.799 365.168C277.099 362.181 281.616 357.875 284.951 352.63C288.286 347.385 290.338 341.361 290.924 335.09C291.11 332.877 291.101 330.651 290.895 328.44ZM279.747 312.67L279.957 312.97L280.148 313.27C280.256 313.423 280.352 313.573 280.435 313.72L280.826 314.36C280.837 314.387 280.853 314.411 280.874 314.43C281.027 314.672 281.167 314.922 281.294 315.18L281.466 315.5L281.715 315.97C281.74 316.008 281.763 316.048 281.782 316.09L281.982 316.51C282.106 316.75 282.221 317 282.326 317.24C282.344 317.276 282.36 317.312 282.374 317.35L282.431 317.47C282.458 317.506 282.477 317.546 282.488 317.59C282.524 317.658 282.556 317.728 282.584 317.8C282.66 317.97 282.727 318.13 282.794 318.3C282.861 318.47 283.023 318.84 283.129 319.12C283.176 319.23 283.215 319.34 283.253 319.45C283.279 319.515 283.302 319.582 283.32 319.65V319.72C283.376 319.843 283.423 319.97 283.463 320.1C283.483 320.148 283.499 320.199 283.511 320.25C283.568 320.39 283.616 320.54 283.664 320.68C283.692 320.729 283.712 320.783 283.721 320.84C283.721 320.89 283.721 320.94 283.769 321C283.875 321.292 283.968 321.589 284.046 321.89L284.103 322.09C284.179 322.32 284.237 322.55 284.294 322.79L284.437 323.37C284.434 323.423 284.434 323.477 284.437 323.53C284.452 323.586 284.452 323.644 284.437 323.7C284.504 323.93 284.552 324.17 284.6 324.41C284.6 324.48 284.6 324.55 284.6 324.62V324.79C284.6 324.96 284.667 325.13 284.695 325.3C284.8 325.89 284.886 326.49 284.963 327.08C285.068 327.93 285.144 328.79 285.182 329.64C285.28 331.35 285.248 333.065 285.087 334.77C285.03 335.31 284.963 335.85 284.886 336.39C284.8 336.92 284.714 337.46 284.6 338C284.447 338.77 284.265 339.52 284.055 340.27C283.283 343.14 282.132 345.883 280.635 348.42C279.828 349.802 278.928 351.122 277.941 352.37C277.741 352.62 277.53 352.86 277.32 353.11C277.11 353.36 276.89 353.58 276.671 353.82C276.26 354.27 275.839 354.72 275.4 355.14L275.333 355.21C273.744 356.759 272.002 358.127 270.136 359.29L270.012 359.36C266.042 361.864 261.572 363.373 256.953 363.77C254.082 364.035 251.191 363.897 248.355 363.36C247.52 363.202 246.694 362.995 245.881 362.74C244.499 362.305 243.141 361.794 241.811 361.21C240.564 360.657 239.354 360.015 238.19 359.29C237.149 358.63 236.127 357.94 235.152 357.18L234.436 356.61C234.14 356.36 233.844 356.1 233.566 355.84C232.704 355.049 231.909 354.183 231.188 353.25C229.238 351.141 227.625 348.716 226.411 346.07C225.636 344.51 224.996 342.88 224.5 341.2C224.174 340.115 223.916 339.01 223.727 337.89C223.354 335.911 223.121 333.905 223.029 331.89C223.02 331.707 223.02 331.523 223.029 331.34C223.012 330.582 223.037 329.824 223.106 329.07C223.101 329.047 223.101 329.023 223.106 329C223.101 328.953 223.101 328.907 223.106 328.86C223.211 327.91 223.497 326.95 223.564 326.04C223.652 325.003 223.825 323.976 224.08 322.97L224.166 322.65C224.166 322.48 224.252 322.31 224.3 322.14C224.297 322.093 224.297 322.047 224.3 322L224.596 321C224.816 320.33 225.045 319.66 225.303 319C225.316 318.956 225.332 318.912 225.351 318.87C225.513 318.47 225.676 318.08 225.847 317.69C226.019 317.3 226.134 317.04 226.287 316.69C226.44 316.34 226.602 316.06 226.755 315.75C226.908 315.44 227.08 315.13 227.252 314.82L227.452 314.47L227.787 313.92C227.978 313.62 228.159 313.32 228.35 313.03L228.713 312.49C229.789 310.916 230.994 309.444 232.315 308.09C232.793 307.59 233.27 307.09 233.796 306.63C233.977 306.46 234.159 306.29 234.35 306.13L234.445 306.05L234.617 305.9C235.877 304.745 237.255 303.739 238.725 302.9C239.547 302.44 240.368 302.02 241.209 301.64L242.164 301.23C245.637 299.757 249.33 298.935 253.074 298.8C255.727 298.697 258.382 298.949 260.975 299.55H261.022C261.937 299.773 262.839 300.047 263.726 300.37L265.446 300.98L266.238 301.26C266.321 301.297 266.396 301.352 266.458 301.42C266.535 301.49 266.601 301.58 266.678 301.65C267.003 301.75 267.318 301.86 267.633 301.97H267.738C268.315 302.24 268.874 302.551 269.41 302.9L269.515 302.97L269.63 303.04L269.802 303.16L269.974 303.27C270.537 303.63 271.082 304 271.617 304.39L272.2 304.81C272.677 305.17 273.155 305.54 273.604 305.93L273.805 306.1L274.378 306.61L274.636 306.85C274.961 307.16 275.276 307.47 275.591 307.8C276.926 309.178 278.152 310.666 279.26 312.25C279.319 312.212 279.388 312.195 279.457 312.2C279.526 312.205 279.592 312.233 279.645 312.279C279.699 312.325 279.737 312.388 279.756 312.458C279.774 312.528 279.771 312.602 279.747 312.67Z" fill="#FFEB7A"/>
<path fill-rule="evenodd" clip-rule="evenodd" d="M272.802 336.39C272.639 335.022 272.113 333.73 271.283 332.66C269.884 330.779 267.856 329.521 265.608 329.14C265.168 329.08 264.557 329.27 264.442 328.7C264.328 328.13 264.93 328.07 265.274 327.85C266.864 326.731 268.044 325.079 268.62 323.166C269.197 321.253 269.135 319.192 268.445 317.32C267.833 315.846 266.859 314.567 265.623 313.613C264.386 312.66 262.931 312.065 261.405 311.89C260.905 311.812 260.4 311.779 259.895 311.79C259.112 311.79 258.605 311.67 258.309 311.22C258.139 310.915 258.041 310.572 258.023 310.22C257.937 309.01 257.631 307.81 257.535 306.6C257.535 306.55 257.535 306.5 257.535 306.46C257.43 305.46 256.981 305.31 256.093 305.53C255.205 305.75 254.45 305.8 253.628 305.94C252.453 306.13 252.224 306.44 252.51 307.6C252.507 307.657 252.507 307.713 252.51 307.77C252.759 308.77 252.749 309.77 252.902 310.71C253.16 312.36 252.339 312.54 251.154 312.71C250.285 312.83 249.95 312.6 249.864 311.71C249.759 310.58 249.578 309.46 249.377 308.34C249.377 308.26 249.377 308.18 249.377 308.1C249.224 307.18 248.842 306.6 247.772 306.89C246.828 307.11 245.87 307.264 244.906 307.35C244.218 307.43 243.951 307.73 244.104 308.46C244.161 308.8 244.209 309.13 244.257 309.46C244.4 310.46 244.524 311.46 244.715 312.46C244.906 313.46 244.715 313.79 243.76 313.91C241.61 314.18 239.48 314.57 237.34 314.91C234.283 315.39 234.283 315.39 234.761 318.65C235.047 320.65 235.047 320.65 237.015 320.51C238.095 320.41 238.716 320.51 239.107 321.05C239.418 321.554 239.602 322.132 239.642 322.73C240.407 327.93 241.168 333.137 241.926 338.35L242.881 344.68C243.091 346.16 242.642 346.77 241.4 347.44C240.674 347.84 239.489 347.38 239.232 348.32C239.162 349.227 239.256 350.139 239.509 351.01C239.509 351.32 239.623 351.62 239.633 351.92C239.633 352.92 240.082 353.13 240.989 352.97C243.616 352.49 246.263 352.18 248.88 351.66C250.16 351.41 250.619 351.84 250.695 353.13C250.772 354.42 251.049 355.45 251.173 356.62C251.259 357.42 251.593 357.62 252.329 357.49C253.389 357.27 254.469 357.14 255.539 356.97C255.739 356.57 256.141 356.65 256.494 356.56C256.265 354.93 256.055 353.3 255.787 351.68C255.663 350.94 255.787 350.59 256.59 350.44C258.72 350.05 258.701 350.01 258.93 352.23C259.045 353.23 259.226 354.28 259.37 355.31C259.414 355.485 259.494 355.648 259.605 355.788C259.715 355.927 259.854 356.039 260.011 356.116C260.167 356.194 260.338 356.234 260.511 356.235C260.685 356.235 260.856 356.196 261.013 356.12C261.893 355.906 262.787 355.762 263.688 355.69C264.519 355.61 264.643 355.22 264.567 354.41C264.267 353.425 264.188 352.382 264.337 351.36C264.442 350.56 263.516 349.76 264.099 349.1C264.683 348.634 265.363 348.319 266.086 348.18C267.041 347.88 267.738 347.03 268.751 346.91C268.751 346.78 268.751 346.6 268.827 346.54C270.675 345.039 272.085 343.026 272.897 340.73C272.999 339.284 272.967 337.83 272.802 336.39ZM260.249 321.56C260.64 323.96 259.895 325.68 258.137 326.56C255.653 327.83 252.912 327.85 250.275 328.36C249.711 328.47 249.568 328.09 249.501 327.61C249.339 326.41 249.157 325.21 248.985 324.01C248.813 322.81 248.641 321.6 248.46 320.4C248.364 319.78 248.546 319.4 249.176 319.29C251.765 319.02 254.278 318.11 256.934 318.5C258.892 318.79 259.943 319.69 260.249 321.56ZM260.774 342.86C258.327 344.035 255.661 344.63 252.969 344.6C252.195 344.6 251.89 344.11 251.794 343.37C251.612 341.99 251.402 340.62 251.202 339.24C251.068 338.38 250.963 337.52 250.829 336.66C250.762 336.19 250.695 335.66 250.609 335.24C250.485 334.52 250.609 334.09 251.393 334C253.719 333.577 256.067 333.29 258.424 333.14C259.747 333.095 261.035 333.59 262.016 334.52C262.592 335.104 262.999 335.845 263.191 336.66C263.879 339.32 263 341.76 260.803 342.86H260.774Z" fill="#FFED7C"/>
<path fill-rule="evenodd" clip-rule="evenodd" d="M285.077 326.53C286.014 332.975 285.081 339.566 282.4 345.45C279.718 351.334 275.412 356.241 270.037 359.534C264.663 362.828 258.468 364.358 252.253 363.926C246.039 363.494 240.092 361.119 235.181 357.11C241.998 361.233 250.056 362.497 257.728 360.647C265.401 358.798 272.119 353.972 276.527 347.143C280.935 340.314 282.706 331.99 281.483 323.848C280.26 315.707 276.133 308.353 269.935 303.27C273.965 305.709 277.419 309.066 280.04 313.093C282.661 317.119 284.383 321.712 285.077 326.53Z" fill="#E4B549"/>
<path fill-rule="evenodd" clip-rule="evenodd" d="M552.443 365.24C549.004 367.24 545.469 369.13 541.868 371C527.499 378.429 512.69 384.886 497.531 390.33C454.332 406 403.958 416 349.753 418.6C281.227 404.06 270.662 394.73 201.076 402.18C197.325 402.58 193.669 403.047 190.109 403.58C186.498 402.68 182.925 401.743 179.39 400.77C157.327 394.787 135.764 386.938 114.916 377.3L113.005 376.41C110.368 375.163 107.767 373.883 105.2 372.57C107.798 369.989 110.126 367.126 112.145 364.03C112.499 363.49 112.671 363.19 112.671 363.19C111.042 359.881 110.067 356.262 109.805 352.55C109.76 351.612 109.792 350.672 109.9 349.74C110.116 347.564 110.892 345.491 112.145 343.74C115.842 338.66 124.65 335.33 143.671 338.27C156.587 340.27 169.398 343.75 181.759 347.42C199.06 352.54 215.492 358.01 230.118 360.22C233.955 360.819 237.826 361.153 241.706 361.22H241.935C243.311 361.22 244.658 361.22 245.986 361.11C253.275 360.67 259.905 358.8 265.713 354.87C269.955 352.01 273.623 349.11 276.986 346.32C279.517 344.21 281.868 342.18 284.141 340.32C286.386 338.45 288.545 336.7 290.742 335.15C297.048 330.67 303.553 327.8 312.638 328.07C315.482 328.155 318.313 328.49 321.103 329.07C327.541 330.38 335.165 332.98 344.46 337.2C347.301 338.493 350.103 339.747 352.867 340.96C396.172 360.07 430.248 370.11 451.876 351.83C455.536 348.727 459.431 345.941 463.522 343.5C476.094 336.01 490.338 332.25 504.906 335.08C506.425 335.38 507.944 335.74 509.463 336.19C515.576 337.979 521.38 340.77 526.659 344.46C529.327 346.316 531.879 348.346 534.302 350.54L535.62 351.75C540.991 356.562 546.607 361.065 552.443 365.24Z" fill="#B1DCEC"/>
<path fill-rule="evenodd" clip-rule="evenodd" d="M117.304 366.89C117.31 370.509 116.491 374.078 114.916 377.3L113.005 376.41C110.368 375.163 107.767 373.883 105.2 372.57C102.633 371.257 100.086 369.923 97.5574 368.57C95.0098 367.183 92.4623 365.763 89.9148 364.31C86.5139 362.31 83.1925 360.31 79.9508 358.31L77.8873 356.99L76.1677 355.87C77.7544 352.855 79.9689 350.252 82.6472 348.255C85.3255 346.257 88.3989 344.916 91.6396 344.332C94.8804 343.747 98.2053 343.933 101.368 344.876C104.531 345.819 107.45 347.495 109.91 349.78C112.126 351.83 113.921 354.33 115.186 357.129C116.451 359.927 117.158 362.966 117.266 366.06C117.294 366.31 117.304 366.6 117.304 366.89Z" fill="#C0C0C0"/>
<path fill-rule="evenodd" clip-rule="evenodd" d="M115.231 365.18C114.814 360.467 112.927 356.029 109.862 352.55C107.691 350.184 105.019 348.386 102.062 347.3C99.105 346.214 95.9455 345.871 92.8385 346.298C89.7314 346.725 86.7638 347.911 84.175 349.76C81.5862 351.608 79.4488 354.068 77.9351 356.94L79.9985 358.26C83.2339 360.313 86.5552 362.313 89.9625 364.26C90.2491 362.58 90.574 360.9 90.9179 359.26C91.0994 358.26 91.2713 357.33 91.4242 356.36C91.4221 356.143 91.466 355.928 91.5527 355.731C91.6394 355.533 91.7668 355.358 91.9258 355.219C92.0847 355.079 92.2712 354.978 92.4719 354.923C92.6726 354.868 92.8825 354.86 93.0865 354.9C94.9302 354.9 96.774 354.9 98.8184 354.9C98.4936 356.75 98.1879 358.52 97.8631 360.3L96.9937 365.37L99.9361 364.56C100.337 366.56 99.8215 367.56 98.2261 368.26L97.5669 368.55C100.114 369.923 102.662 371.257 105.209 372.55C107.757 373.843 110.359 375.123 113.014 376.39C114.445 373.406 115.228 370.128 115.307 366.79C115.317 366.26 115.288 365.72 115.231 365.18Z" fill="#969696"/>
<path fill-rule="evenodd" clip-rule="evenodd" d="M98.207 368.26L97.5478 368.55C95.0003 367.163 92.4528 365.743 89.9053 364.29C90.1919 362.61 90.5167 360.93 90.8606 359.29C91.0421 358.29 91.2141 357.36 91.3669 356.39C91.3648 356.173 91.4087 355.958 91.4954 355.761C91.5821 355.563 91.7095 355.388 91.8685 355.249C92.0274 355.109 92.214 355.008 92.4147 354.953C92.6153 354.898 92.8252 354.89 93.0292 354.93C94.8729 354.93 96.7167 354.93 98.7611 354.93C98.4363 356.78 98.1306 358.55 97.8058 360.33L96.9364 365.4L99.8788 364.59C100.309 366.59 99.8024 367.58 98.207 368.26Z" fill="#C0C0C0"/>
<path fill-rule="evenodd" clip-rule="evenodd" d="M576.336 239H300.248L412.021 116H597.353H615.504H644.164H667.091H681.421H694.796L575.38 239" fill="#9B6F3F"/>
<path d="M576.336 239H300.248L412.021 116H597.353H615.504H644.164H667.091H681.421H694.796L575.38 239" stroke="#9F713F" stroke-width="3" stroke-linecap="round" stroke-linejoin="round"/>
<path d="M324.761 239L436.534 116" stroke="#B39356" stroke-width="5" stroke-linecap="round" stroke-linejoin="round"/>
<path d="M356.01 239L467.782 116" stroke="#B39356" stroke-width="5" stroke-linecap="round" stroke-linejoin="round"/>
<path d="M388.873 239L500.646 116" stroke="#B39356" stroke-width="5" stroke-linecap="round" stroke-linejoin="round"/>
<path d="M420.122 239L531.894 116" stroke="#B39356" stroke-width="5" stroke-linecap="round" stroke-linejoin="round"/>
<path d="M450.233 239L562.006 116" stroke="#B39356" stroke-width="5" stroke-linecap="round" stroke-linejoin="round"/>
<path d="M481.482 239L593.255 116" stroke="#B39356" stroke-width="5" stroke-linecap="round" stroke-linejoin="round"/>
<path d="M514.335 239L626.108 116" stroke="#B39356" stroke-width="5" stroke-linecap="round" stroke-linejoin="round"/>
<path d="M545.584 239L657.357 116" stroke="#B39356" stroke-width="5" stroke-linecap="round" stroke-linejoin="round"/>
<path d="M473.161 30.66V45.66C473.161 45.66 478.568 43.66 481.119 40C483.67 36.34 485.896 38.16 485.896 38.16L496.767 41L489.765 47.66C489.765 47.66 504.687 58 504.41 65.33L491.675 74.66L497.407 109C497.407 109 498.047 110.33 463.971 114L456.328 174.33L385.319 172.33L455.688 53L395.188 57.66L396.143 37.33L466.197 35V30.66H473.161Z" fill="#F9DD9C"/>
<path d="M478.568 68.66V69.66V91L468.06 93.33L478.568 68.66Z" fill="#B1DCEC"/>
<path d="M489.401 38.47L487.968 31.37C487.968 31.37 484.147 32.87 481.281 31.37L479.963 38.47H489.401Z" fill="#904765"/>
<path d="M473.161 30.66L487.357 38.55C487.357 38.55 475.387 48 471.566 46L473.161 30.66Z" fill="#94723F"/>
<path d="M479.457 17.37C479.457 17.37 471.738 29.08 481.167 32C490.596 34.92 494.541 24.7 494.541 24.7L479.457 17.37Z" fill="#D47490"/>
<path d="M468.107 53L422.816 173.39C422.816 173.39 428.939 111 468.107 53Z" fill="#94723F"/>
<path d="M473.314 10.74V14.49L503.254 29L505.518 25.75L501.219 23.87L501.104 7.87L487.357 2L478.568 11.62L473.314 10.74Z" fill="#30464C"/>
<path d="M397.91 37.27C397.791 38.9498 397.071 40.5207 395.895 41.67C394.167 43.2867 391.999 44.2972 389.695 44.56C388.676 44.7193 387.648 44.8095 386.618 44.83C386.618 44.83 384.851 47.02 382.721 46.72C382.247 46.6805 381.797 46.488 381.433 46.1692C381.068 45.8503 380.807 45.4208 380.686 44.94C379.731 42.62 379.492 38.45 380.466 36.46C380.581 36.146 380.78 35.8735 381.04 35.6748C381.299 35.4762 381.607 35.36 381.928 35.34C384.994 35.33 395.665 36.13 397.91 37.27Z" fill="#D48274"/>
<path d="M436.438 99L430.534 100.63L426.971 101.63L420.284 103.47L419.185 102.47L415.202 99L415.67 96L417.628 83.36C412.686 77.36 407.817 71.7867 403.021 66.64C396.038 59.15 389.236 52.55 382.721 46.75C382.042 46.14 381.364 45.55 380.686 44.97C344.384 13.27 317.386 6.37 317.386 6.37" stroke="#77563D" stroke-linecap="round" stroke-linejoin="round"/>
<path d="M425.748 116C430.233 116 433.869 112.194 433.869 107.5C433.869 102.806 430.233 99 425.748 99C421.264 99 417.628 102.806 417.628 107.5C417.628 112.194 421.264 116 425.748 116Z" fill="#51425E"/>
<path d="M474.594 165C474.594 165 474.136 163.95 473.218 162C472.149 159.72 470.458 156.21 468.174 151.74C467.716 150.84 467.219 149.91 466.722 148.94C465.194 146 463.446 142.73 461.478 139.18L460.876 138.09C459.309 135.277 457.612 132.317 455.784 129.21C453.338 125.03 450.654 120.6 447.75 116.01L446.852 114.6L445.629 112.69L444.473 110.9C443.26 109.05 442.018 107.17 440.747 105.28L439.562 103.54L438.435 101.89C437.776 100.94 437.117 99.97 436.439 99.01C435.034 97.01 433.573 95.01 432.101 92.93L432.006 92.8C426.073 84.58 419.482 76.22 412.374 68C409.19 64.3 405.878 60.6533 402.439 57.06C400.171 54.68 397.856 52.3467 395.494 50.06C393.583 48.1933 391.65 46.3567 389.695 44.55C386.695 41.77 383.609 39.07 380.466 36.44C361.924 21 340.973 8.42 317.921 2L309.601 48.34" stroke="#77563D" stroke-width="4" stroke-linecap="round" stroke-linejoin="round"/>
<path d="M310 46.5L298.834 108.29L297.172 117.59L295.166 128.74L294.258 133.82L293.093 140.32L289.462 160.52L288.755 164.48H288.746L284.982 185.45L282.374 200L282.326 200.28L279.842 214.12L278.753 220.16L277.779 225.61L274.426 244.3H274.416L272.524 254.86L271.942 258.1L268.216 278.84L265.856 292L265.675 292.8L265.235 294.79L264.185 299.53L263.974 300.46L263.965 300.51L262.933 305.16L261.987 309.43L261.443 311.89L260.306 317" stroke="#77563D" stroke-width="4" stroke-linecap="round" stroke-linejoin="round"/>
<path d="M454.676 174.29L457.398 178.49H454.676C454.676 178.49 468.222 215.49 468.05 224.99H445.438C445.438 224.99 453.892 222.33 451.819 214.66L438.607 182L432.397 181.67V173.4L454.676 174.29Z" fill="#42545E"/>
<path d="M406.441 172.93L408.037 176.54L401.827 178.32L375.718 226.66H353.268C353.268 226.66 355.809 219.82 365.047 219.99C365.047 219.99 370.942 213.66 371.897 210.99C372.852 208.32 383.514 182.49 383.514 182.49L378.422 182.16L387.497 172.39L406.441 172.93Z" fill="#42545E"/>
<path d="M449.956 95.25V109.25C449.956 109.25 444.702 110.25 443.03 111.75C441.358 113.25 435.865 109.25 439.448 96.75C439.448 96.75 448.304 93.88 449.956 95.25Z" fill="#D48274"/>
<path fill-rule="evenodd" clip-rule="evenodd" d="M575.38 239H719.519V116H694.796" fill="#9B6F3F"/>
<path d="M575.38 239H719.519V116H694.796" stroke="#9F713F" stroke-width="3" stroke-linecap="round" stroke-linejoin="round"/>
<path d="M576.365 239L688.137 116" stroke="#B39356" stroke-width="5" stroke-linecap="round" stroke-linejoin="round"/>
<path d="M609.228 239L721 116" stroke="#B39356" stroke-width="5" stroke-linecap="round" stroke-linejoin="round"/>
<path d="M719.529 152L640.476 239" stroke="#B39356" stroke-width="5" stroke-linecap="round" stroke-linejoin="round"/>
<path d="M719.529 193.62L681.173 235.83" stroke="#775650" stroke-width="3" stroke-linecap="round" stroke-linejoin="round"/>
<path d="M719.519 239H300.248V251.28H719.519V239Z" fill="#775650" stroke="#775650" stroke-width="3" stroke-linecap="round" stroke-linejoin="round"/>
<defs>
<linearGradient id="paint0_linear_6_400" x1="0" y1="240.07" x2="644.039" y2="240.07" gradientUnits="userSpaceOnUse">
<stop stop-color="#278BE1"/>
<stop offset="0.01" stop-color="#2B8DE1"/>
<stop offset="0.17" stop-color="#54A5E5"/>
<stop offset="0.32" stop-color="#76B9E7"/>
<stop offset="0.48" stop-color="#90C8E9"/>
<stop offset="0.65" stop-color="#A2D3EB"/>
<stop offset="0.82" stop-color="#ADDAEC"/>
<stop offset="1" stop-color="#B1DCEC"/>
</linearGradient>
</defs>
</svg>
