<svg width="1444" height="909" viewBox="0 0 1444 909" fill="none" xmlns="http://www.w3.org/2000/svg">
<rect y="-45" width="1600" height="954" fill="url(#paint0_linear_5_1097)"/>
<mask id="mask0_5_1097" style="mask-type:luminance" maskUnits="userSpaceOnUse" x="0" y="-45" width="1600" height="954">
<rect y="-45" width="1600" height="954" fill="white"/>
</mask>
<g mask="url(#mask0_5_1097)">
<path fill-rule="evenodd" clip-rule="evenodd" d="M1225 156.211C1225.79 156.211 1226.56 155.891 1227.12 155.331C1227.68 154.772 1228 153.999 1228 153.208C1228 152.416 1227.68 151.643 1227.12 151.085C1226.56 150.524 1225.79 150.205 1225 150.205C1224.21 150.205 1223.44 150.524 1222.88 151.085C1222.32 151.643 1222 152.416 1222 153.208C1222 153.999 1222.32 154.772 1222.88 155.331C1223.44 155.891 1224.21 156.211 1225 156.211Z" fill="#130D3A"/>
<path fill-rule="evenodd" clip-rule="evenodd" d="M1257.99 156.211H1258.01C1259.66 156.211 1261 154.865 1261 153.208C1261 151.55 1259.66 150.205 1258.01 150.205H1257.99C1256.34 150.205 1255 151.55 1255 153.208C1255 154.865 1256.34 156.211 1257.99 156.211Z" fill="#130D3A"/>
<path fill-rule="evenodd" clip-rule="evenodd" d="M1241.99 156.211H1242.01C1243.66 156.211 1245 154.865 1245 153.208C1245 151.55 1243.66 150.205 1242.01 150.205H1241.99C1240.34 150.205 1239 151.55 1239 153.208C1239 154.865 1240.34 156.211 1241.99 156.211Z" fill="#130D3A"/>
<path fill-rule="evenodd" clip-rule="evenodd" d="M1275 156.211C1275.79 156.211 1276.56 155.891 1277.12 155.331C1277.68 154.772 1278 153.999 1278 153.208C1278 152.416 1277.68 151.643 1277.12 151.085C1276.56 150.524 1275.79 150.205 1275 150.205C1274.21 150.205 1273.44 150.524 1272.88 151.085C1272.32 151.643 1272 152.416 1272 153.208C1272 153.999 1272.32 154.772 1272.88 155.331C1273.44 155.891 1274.21 156.211 1275 156.211Z" fill="#130D3A"/>
<path fill-rule="evenodd" clip-rule="evenodd" d="M1292 156.211C1292.79 156.211 1293.56 155.891 1294.12 155.331C1294.68 154.772 1295 153.999 1295 153.208C1295 152.416 1294.68 151.643 1294.12 151.085C1293.56 150.524 1292.79 150.205 1292 150.205C1291.21 150.205 1290.44 150.524 1289.88 151.085C1289.32 151.643 1289 152.416 1289 153.208C1289 153.999 1289.32 154.772 1289.88 155.331C1290.44 155.891 1291.21 156.211 1292 156.211Z" fill="#130D3A"/>
<path fill-rule="evenodd" clip-rule="evenodd" d="M1324.99 156.211H1325.01C1326.66 156.211 1328 154.865 1328 153.208C1328 151.55 1326.66 150.205 1325.01 150.205H1324.99C1323.34 150.205 1322 151.55 1322 153.208C1322 154.865 1323.34 156.211 1324.99 156.211Z" fill="#130D3A"/>
<path fill-rule="evenodd" clip-rule="evenodd" d="M1307.99 156.211H1308.01C1309.66 156.211 1311 154.865 1311 153.208C1311 151.55 1309.66 150.205 1308.01 150.205H1307.99C1306.34 150.205 1305 151.55 1305 153.208C1305 154.865 1306.34 156.211 1307.99 156.211Z" fill="#130D3A"/>
<mask id="mask1_5_1097" style="mask-type:luminance" maskUnits="userSpaceOnUse" x="1338" y="149" width="7" height="8">
<path fill-rule="evenodd" clip-rule="evenodd" d="M1338.3 149.992H1344.7V156.399H1338.3V149.992Z" fill="white"/>
</mask>
<g mask="url(#mask1_5_1097)">
<path fill-rule="evenodd" clip-rule="evenodd" d="M1341.5 156.399C1342.34 156.399 1343.17 156.058 1343.77 155.46C1344.36 154.864 1344.7 154.04 1344.7 153.196C1344.7 152.351 1344.36 151.527 1343.77 150.931C1343.17 150.333 1342.34 149.992 1341.5 149.992C1340.66 149.992 1339.84 150.333 1339.24 150.931C1338.64 151.527 1338.3 152.351 1338.3 153.196C1338.3 154.04 1338.64 154.864 1339.24 155.46C1339.84 156.058 1340.66 156.399 1341.5 156.399Z" fill="#130D3A"/>
</g>
<path fill-rule="evenodd" clip-rule="evenodd" d="M1225 143.197C1225.79 143.197 1226.56 142.877 1227.12 142.317C1227.68 141.759 1228 140.984 1228 140.194C1228 139.403 1227.68 138.629 1227.12 138.069C1226.56 137.511 1225.79 137.191 1225 137.191C1224.21 137.191 1223.44 137.511 1222.88 138.069C1222.32 138.629 1222 139.403 1222 140.194C1222 140.984 1222.32 141.759 1222.88 142.317C1223.44 142.877 1224.21 143.197 1225 143.197Z" fill="#130D3A"/>
<path fill-rule="evenodd" clip-rule="evenodd" d="M1257.99 143.197H1258.01C1259.66 143.197 1261 141.852 1261 140.194C1261 138.536 1259.66 137.191 1258.01 137.191H1257.99C1256.34 137.191 1255 138.536 1255 140.194C1255 141.852 1256.34 143.197 1257.99 143.197Z" fill="#130D3A"/>
<path fill-rule="evenodd" clip-rule="evenodd" d="M1241.99 143.197H1242.01C1243.66 143.197 1245 141.852 1245 140.194C1245 138.536 1243.66 137.191 1242.01 137.191H1241.99C1240.34 137.191 1239 138.536 1239 140.194C1239 141.852 1240.34 143.197 1241.99 143.197Z" fill="#130D3A"/>
<path fill-rule="evenodd" clip-rule="evenodd" d="M1275 143.197C1275.79 143.197 1276.56 142.877 1277.12 142.317C1277.68 141.759 1278 140.984 1278 140.194C1278 139.403 1277.68 138.629 1277.12 138.069C1276.56 137.511 1275.79 137.191 1275 137.191C1274.21 137.191 1273.44 137.511 1272.88 138.069C1272.32 138.629 1272 139.403 1272 140.194C1272 140.984 1272.32 141.759 1272.88 142.317C1273.44 142.877 1274.21 143.197 1275 143.197Z" fill="#130D3A"/>
<path fill-rule="evenodd" clip-rule="evenodd" d="M1292 143.197C1292.79 143.197 1293.56 142.877 1294.12 142.317C1294.68 141.759 1295 140.984 1295 140.194C1295 139.403 1294.68 138.629 1294.12 138.069C1293.56 137.511 1292.79 137.191 1292 137.191C1291.21 137.191 1290.44 137.511 1289.88 138.069C1289.32 138.629 1289 139.403 1289 140.194C1289 140.984 1289.32 141.759 1289.88 142.317C1290.44 142.877 1291.21 143.197 1292 143.197Z" fill="#130D3A"/>
<path fill-rule="evenodd" clip-rule="evenodd" d="M1324.99 143.197H1325.01C1326.66 143.197 1328 141.852 1328 140.194C1328 138.536 1326.66 137.191 1325.01 137.191H1324.99C1323.34 137.191 1322 138.536 1322 140.194C1322 141.852 1323.34 143.197 1324.99 143.197Z" fill="#130D3A"/>
<path fill-rule="evenodd" clip-rule="evenodd" d="M1307.99 143.197H1308.01C1309.66 143.197 1311 141.852 1311 140.194C1311 138.536 1309.66 137.191 1308.01 137.191H1307.99C1306.34 137.191 1305 138.536 1305 140.194C1305 141.852 1306.34 143.197 1307.99 143.197Z" fill="#130D3A"/>
<mask id="mask2_5_1097" style="mask-type:luminance" maskUnits="userSpaceOnUse" x="1338" y="136" width="7" height="8">
<path fill-rule="evenodd" clip-rule="evenodd" d="M1338.3 136.634H1344.7V143.04H1338.3V136.634Z" fill="white"/>
</mask>
<g mask="url(#mask2_5_1097)">
<path fill-rule="evenodd" clip-rule="evenodd" d="M1341.5 143.04C1342.34 143.04 1343.17 142.699 1343.77 142.102C1344.36 141.506 1344.7 140.679 1344.7 139.837C1344.7 138.993 1344.36 138.168 1343.77 137.571C1343.17 136.975 1342.34 136.634 1341.5 136.634C1340.66 136.634 1339.84 136.975 1339.24 137.571C1338.64 138.168 1338.3 138.993 1338.3 139.837C1338.3 140.679 1338.64 141.506 1339.24 142.102C1339.84 142.699 1340.66 143.04 1341.5 143.04Z" fill="#130D3A"/>
</g>
<path fill-rule="evenodd" clip-rule="evenodd" d="M1225 169.225C1225.79 169.225 1226.56 168.905 1227.12 168.345C1227.68 167.786 1228 167.013 1228 166.221C1228 165.432 1227.68 164.657 1227.12 164.098C1226.56 163.538 1225.79 163.218 1225 163.218C1224.21 163.218 1223.44 163.538 1222.88 164.098C1222.32 164.657 1222 165.432 1222 166.221C1222 167.013 1222.32 167.786 1222.88 168.345C1223.44 168.905 1224.21 169.225 1225 169.225Z" fill="#130D3A"/>
<path fill-rule="evenodd" clip-rule="evenodd" d="M1257.99 169.225H1258.01C1259.66 169.225 1261 167.879 1261 166.221C1261 164.564 1259.66 163.218 1258.01 163.218H1257.99C1256.34 163.218 1255 164.564 1255 166.221C1255 167.879 1256.34 169.225 1257.99 169.225Z" fill="#130D3A"/>
<path fill-rule="evenodd" clip-rule="evenodd" d="M1241.99 169.225H1242.01C1243.66 169.225 1245 167.879 1245 166.221C1245 164.564 1243.66 163.218 1242.01 163.218H1241.99C1240.34 163.218 1239 164.564 1239 166.221C1239 167.879 1240.34 169.225 1241.99 169.225Z" fill="#130D3A"/>
<path fill-rule="evenodd" clip-rule="evenodd" d="M1275 169.225C1275.79 169.225 1276.56 168.905 1277.12 168.345C1277.68 167.786 1278 167.013 1278 166.221C1278 165.432 1277.68 164.657 1277.12 164.098C1276.56 163.538 1275.79 163.218 1275 163.218C1274.21 163.218 1273.44 163.538 1272.88 164.098C1272.32 164.657 1272 165.432 1272 166.221C1272 167.013 1272.32 167.786 1272.88 168.345C1273.44 168.905 1274.21 169.225 1275 169.225Z" fill="#130D3A"/>
<path fill-rule="evenodd" clip-rule="evenodd" d="M1292 169.225C1292.79 169.225 1293.56 168.905 1294.12 168.345C1294.68 167.786 1295 167.013 1295 166.221C1295 165.432 1294.68 164.657 1294.12 164.098C1293.56 163.538 1292.79 163.218 1292 163.218C1291.21 163.218 1290.44 163.538 1289.88 164.098C1289.32 164.657 1289 165.432 1289 166.221C1289 167.013 1289.32 167.786 1289.88 168.345C1290.44 168.905 1291.21 169.225 1292 169.225Z" fill="#130D3A"/>
<path fill-rule="evenodd" clip-rule="evenodd" d="M1324.99 169.225H1325.01C1326.66 169.225 1328 167.879 1328 166.221C1328 164.564 1326.66 163.218 1325.01 163.218H1324.99C1323.34 163.218 1322 164.564 1322 166.221C1322 167.879 1323.34 169.225 1324.99 169.225Z" fill="#130D3A"/>
<path fill-rule="evenodd" clip-rule="evenodd" d="M1307.99 169.225H1308.01C1309.66 169.225 1311 167.879 1311 166.221C1311 164.564 1309.66 163.218 1308.01 163.218H1307.99C1306.34 163.218 1305 164.564 1305 166.221C1305 167.879 1306.34 169.225 1307.99 169.225Z" fill="#130D3A"/>
<mask id="mask3_5_1097" style="mask-type:luminance" maskUnits="userSpaceOnUse" x="1338" y="163" width="7" height="7">
<path fill-rule="evenodd" clip-rule="evenodd" d="M1338.3 163.351H1344.7V169.758H1338.3V163.351Z" fill="white"/>
</mask>
<g mask="url(#mask3_5_1097)">
<path fill-rule="evenodd" clip-rule="evenodd" d="M1341.5 169.758C1342.34 169.758 1343.17 169.416 1343.77 168.819C1344.36 168.223 1344.7 167.398 1344.7 166.554C1344.7 165.712 1344.36 164.885 1343.77 164.289C1343.17 163.692 1342.34 163.351 1341.5 163.351C1340.66 163.351 1339.84 163.692 1339.24 164.289C1338.64 164.885 1338.3 165.712 1338.3 166.554C1338.3 167.398 1338.64 168.223 1339.24 168.819C1339.84 169.416 1340.66 169.758 1341.5 169.758Z" fill="#130D3A"/>
</g>
<path fill-rule="evenodd" clip-rule="evenodd" d="M1225 182.238C1225.79 182.238 1226.56 181.918 1227.12 181.358C1227.68 180.8 1228 180.026 1228 179.235C1228 178.444 1227.68 177.67 1227.12 177.112C1226.56 176.552 1225.79 176.232 1225 176.232C1224.21 176.232 1223.44 176.552 1222.88 177.112C1222.32 177.67 1222 178.444 1222 179.235C1222 180.026 1222.32 180.8 1222.88 181.358C1223.44 181.918 1224.21 182.238 1225 182.238Z" fill="#130D3A"/>
<path fill-rule="evenodd" clip-rule="evenodd" d="M1257.99 182.238H1258.01C1259.66 182.238 1261 180.893 1261 179.235C1261 177.577 1259.66 176.232 1258.01 176.232H1257.99C1256.34 176.232 1255 177.577 1255 179.235C1255 180.893 1256.34 182.238 1257.99 182.238Z" fill="#130D3A"/>
<path fill-rule="evenodd" clip-rule="evenodd" d="M1241.99 182.238H1242.01C1243.66 182.238 1245 180.893 1245 179.235C1245 177.577 1243.66 176.232 1242.01 176.232H1241.99C1240.34 176.232 1239 177.577 1239 179.235C1239 180.893 1240.34 182.238 1241.99 182.238Z" fill="#130D3A"/>
<path fill-rule="evenodd" clip-rule="evenodd" d="M1275 182.238C1275.79 182.238 1276.56 181.918 1277.12 181.358C1277.68 180.8 1278 180.026 1278 179.235C1278 178.444 1277.68 177.67 1277.12 177.112C1276.56 176.552 1275.79 176.232 1275 176.232C1274.21 176.232 1273.44 176.552 1272.88 177.112C1272.32 177.67 1272 178.444 1272 179.235C1272 180.026 1272.32 180.8 1272.88 181.358C1273.44 181.918 1274.21 182.238 1275 182.238Z" fill="#130D3A"/>
<path fill-rule="evenodd" clip-rule="evenodd" d="M1292 182.238C1292.79 182.238 1293.56 181.918 1294.12 181.358C1294.68 180.8 1295 180.026 1295 179.235C1295 178.444 1294.68 177.67 1294.12 177.112C1293.56 176.552 1292.79 176.232 1292 176.232C1291.21 176.232 1290.44 176.552 1289.88 177.112C1289.32 177.67 1289 178.444 1289 179.235C1289 180.026 1289.32 180.8 1289.88 181.358C1290.44 181.918 1291.21 182.238 1292 182.238Z" fill="#130D3A"/>
<path fill-rule="evenodd" clip-rule="evenodd" d="M1324.99 182.238H1325.01C1326.66 182.238 1328 180.893 1328 179.235C1328 177.577 1326.66 176.232 1325.01 176.232H1324.99C1323.34 176.232 1322 177.577 1322 179.235C1322 180.893 1323.34 182.238 1324.99 182.238Z" fill="#130D3A"/>
<path fill-rule="evenodd" clip-rule="evenodd" d="M1307.99 182.238H1308.01C1309.66 182.238 1311 180.893 1311 179.235C1311 177.577 1309.66 176.232 1308.01 176.232H1307.99C1306.34 176.232 1305 177.577 1305 179.235C1305 180.893 1306.34 182.238 1307.99 182.238Z" fill="#130D3A"/>
<mask id="mask4_5_1097" style="mask-type:luminance" maskUnits="userSpaceOnUse" x="1338" y="176" width="7" height="8">
<path fill-rule="evenodd" clip-rule="evenodd" d="M1338.3 176.709H1344.7V183.116H1338.3V176.709Z" fill="white"/>
</mask>
<g mask="url(#mask4_5_1097)">
<path fill-rule="evenodd" clip-rule="evenodd" d="M1341.5 183.116C1342.34 183.116 1343.17 182.775 1343.77 182.177C1344.36 181.582 1344.7 180.757 1344.7 179.913C1344.7 179.069 1344.36 178.244 1343.77 177.648C1343.17 177.05 1342.34 176.709 1341.5 176.709C1340.66 176.709 1339.84 177.05 1339.24 177.648C1338.64 178.244 1338.3 179.069 1338.3 179.913C1338.3 180.757 1338.64 181.582 1339.24 182.177C1339.84 182.775 1340.66 183.116 1341.5 183.116Z" fill="#130D3A"/>
</g>
<path fill-rule="evenodd" clip-rule="evenodd" d="M1225 196.253C1225.79 196.253 1226.56 195.933 1227.12 195.373C1227.68 194.814 1228 194.041 1228 193.25C1228 192.46 1227.68 191.685 1227.12 191.127C1226.56 190.566 1225.79 190.247 1225 190.247C1224.21 190.247 1223.44 190.566 1222.88 191.127C1222.32 191.685 1222 192.46 1222 193.25C1222 194.041 1222.32 194.814 1222.88 195.373C1223.44 195.933 1224.21 196.253 1225 196.253Z" fill="#130D3A"/>
<path fill-rule="evenodd" clip-rule="evenodd" d="M1257.99 196.253H1258.01C1259.66 196.253 1261 194.907 1261 193.25C1261 191.592 1259.66 190.247 1258.01 190.247H1257.99C1256.34 190.247 1255 191.592 1255 193.25C1255 194.907 1256.34 196.253 1257.99 196.253Z" fill="#130D3A"/>
<path fill-rule="evenodd" clip-rule="evenodd" d="M1241.99 196.253H1242.01C1243.66 196.253 1245 194.907 1245 193.25C1245 191.592 1243.66 190.247 1242.01 190.247H1241.99C1240.34 190.247 1239 191.592 1239 193.25C1239 194.907 1240.34 196.253 1241.99 196.253Z" fill="#130D3A"/>
<path fill-rule="evenodd" clip-rule="evenodd" d="M1275 196.253C1275.79 196.253 1276.56 195.933 1277.12 195.373C1277.68 194.814 1278 194.041 1278 193.25C1278 192.46 1277.68 191.685 1277.12 191.127C1276.56 190.566 1275.79 190.247 1275 190.247C1274.21 190.247 1273.44 190.566 1272.88 191.127C1272.32 191.685 1272 192.46 1272 193.25C1272 194.041 1272.32 194.814 1272.88 195.373C1273.44 195.933 1274.21 196.253 1275 196.253Z" fill="#130D3A"/>
<path fill-rule="evenodd" clip-rule="evenodd" d="M1292 196.253C1292.79 196.253 1293.56 195.933 1294.12 195.373C1294.68 194.814 1295 194.041 1295 193.25C1295 192.46 1294.68 191.685 1294.12 191.127C1293.56 190.566 1292.79 190.247 1292 190.247C1291.21 190.247 1290.44 190.566 1289.88 191.127C1289.32 191.685 1289 192.46 1289 193.25C1289 194.041 1289.32 194.814 1289.88 195.373C1290.44 195.933 1291.21 196.253 1292 196.253Z" fill="#130D3A"/>
<path fill-rule="evenodd" clip-rule="evenodd" d="M1324.99 196.253H1325.01C1326.66 196.253 1328 194.907 1328 193.25C1328 191.592 1326.66 190.247 1325.01 190.247H1324.99C1323.34 190.247 1322 191.592 1322 193.25C1322 194.907 1323.34 196.253 1324.99 196.253Z" fill="#130D3A"/>
<path fill-rule="evenodd" clip-rule="evenodd" d="M1307.99 196.253H1308.01C1309.66 196.253 1311 194.907 1311 193.25C1311 191.592 1309.66 190.247 1308.01 190.247H1307.99C1306.34 190.247 1305 191.592 1305 193.25C1305 194.907 1306.34 196.253 1307.99 196.253Z" fill="#130D3A"/>
<mask id="mask5_5_1097" style="mask-type:luminance" maskUnits="userSpaceOnUse" x="1338" y="189" width="7" height="7">
<path fill-rule="evenodd" clip-rule="evenodd" d="M1338.3 189.467H1344.7V195.874H1338.3V189.467Z" fill="white"/>
</mask>
<g mask="url(#mask5_5_1097)">
<path fill-rule="evenodd" clip-rule="evenodd" d="M1341.5 195.874C1342.34 195.874 1343.17 195.533 1343.77 194.935C1344.36 194.34 1344.7 193.515 1344.7 192.671C1344.7 191.828 1344.36 191.002 1343.77 190.406C1343.17 189.808 1342.34 189.467 1341.5 189.467C1340.66 189.467 1339.84 189.808 1339.24 190.406C1338.64 191.002 1338.3 191.828 1338.3 192.671C1338.3 193.515 1338.64 194.34 1339.24 194.935C1339.84 195.533 1340.66 195.874 1341.5 195.874Z" fill="#130D3A"/>
</g>
<path fill-rule="evenodd" clip-rule="evenodd" d="M1225 209.267C1225.79 209.267 1226.56 208.947 1227.12 208.388C1227.68 207.828 1228 207.055 1228 206.263C1228 205.474 1227.68 204.699 1227.12 204.14C1226.56 203.58 1225.79 203.26 1225 203.26C1224.21 203.26 1223.44 203.58 1222.88 204.14C1222.32 204.699 1222 205.474 1222 206.263C1222 207.055 1222.32 207.828 1222.88 208.388C1223.44 208.947 1224.21 209.267 1225 209.267Z" fill="#130D3A"/>
<path fill-rule="evenodd" clip-rule="evenodd" d="M1257.99 209.267H1258.01C1259.66 209.267 1261 207.921 1261 206.263C1261 204.606 1259.66 203.26 1258.01 203.26H1257.99C1256.34 203.26 1255 204.606 1255 206.263C1255 207.921 1256.34 209.267 1257.99 209.267Z" fill="#130D3A"/>
<path fill-rule="evenodd" clip-rule="evenodd" d="M1241.99 209.267H1242.01C1243.66 209.267 1245 207.921 1245 206.263C1245 204.606 1243.66 203.26 1242.01 203.26H1241.99C1240.34 203.26 1239 204.606 1239 206.263C1239 207.921 1240.34 209.267 1241.99 209.267Z" fill="#130D3A"/>
<path fill-rule="evenodd" clip-rule="evenodd" d="M1275 209.267C1275.79 209.267 1276.56 208.947 1277.12 208.388C1277.68 207.828 1278 207.055 1278 206.263C1278 205.474 1277.68 204.699 1277.12 204.14C1276.56 203.58 1275.79 203.26 1275 203.26C1274.21 203.26 1273.44 203.58 1272.88 204.14C1272.32 204.699 1272 205.474 1272 206.263C1272 207.055 1272.32 207.828 1272.88 208.388C1273.44 208.947 1274.21 209.267 1275 209.267Z" fill="#130D3A"/>
<path fill-rule="evenodd" clip-rule="evenodd" d="M1292 209.267C1292.79 209.267 1293.56 208.947 1294.12 208.388C1294.68 207.828 1295 207.055 1295 206.263C1295 205.474 1294.68 204.699 1294.12 204.14C1293.56 203.58 1292.79 203.26 1292 203.26C1291.21 203.26 1290.44 203.58 1289.88 204.14C1289.32 204.699 1289 205.474 1289 206.263C1289 207.055 1289.32 207.828 1289.88 208.388C1290.44 208.947 1291.21 209.267 1292 209.267Z" fill="#130D3A"/>
<path fill-rule="evenodd" clip-rule="evenodd" d="M1324.99 209.267H1325.01C1326.66 209.267 1328 207.921 1328 206.263C1328 204.606 1326.66 203.26 1325.01 203.26H1324.99C1323.34 203.26 1322 204.606 1322 206.263C1322 207.921 1323.34 209.267 1324.99 209.267Z" fill="#130D3A"/>
<path fill-rule="evenodd" clip-rule="evenodd" d="M1307.99 209.267H1308.01C1309.66 209.267 1311 207.921 1311 206.263C1311 204.606 1309.66 203.26 1308.01 203.26H1307.99C1306.34 203.26 1305 204.606 1305 206.263C1305 207.921 1306.34 209.267 1307.99 209.267Z" fill="#130D3A"/>
<mask id="mask6_5_1097" style="mask-type:luminance" maskUnits="userSpaceOnUse" x="1338" y="202" width="7" height="8">
<path fill-rule="evenodd" clip-rule="evenodd" d="M1338.3 202.826H1344.7V209.232H1338.3V202.826Z" fill="white"/>
</mask>
<g mask="url(#mask6_5_1097)">
<path fill-rule="evenodd" clip-rule="evenodd" d="M1341.5 209.232C1342.34 209.232 1343.17 208.891 1343.77 208.295C1344.36 207.698 1344.7 206.873 1344.7 206.029C1344.7 205.187 1344.36 204.36 1343.77 203.764C1343.17 203.167 1342.34 202.826 1341.5 202.826C1340.66 202.826 1339.84 203.167 1339.24 203.764C1338.64 204.36 1338.3 205.187 1338.3 206.029C1338.3 206.873 1338.64 207.698 1339.24 208.295C1339.84 208.891 1340.66 209.232 1341.5 209.232Z" fill="#130D3A"/>
</g>
<path fill-rule="evenodd" clip-rule="evenodd" d="M1225 222.28C1225.79 222.28 1226.56 221.96 1227.12 221.4C1227.68 220.842 1228 220.068 1228 219.277C1228 218.487 1227.68 217.712 1227.12 217.154C1226.56 216.594 1225.79 216.274 1225 216.274C1224.21 216.274 1223.44 216.594 1222.88 217.154C1222.32 217.712 1222 218.487 1222 219.277C1222 220.068 1222.32 220.842 1222.88 221.4C1223.44 221.96 1224.21 222.28 1225 222.28Z" fill="#130D3A"/>
<path fill-rule="evenodd" clip-rule="evenodd" d="M1257.99 222.28H1258.01C1259.66 222.28 1261 220.935 1261 219.277C1261 217.619 1259.66 216.274 1258.01 216.274H1257.99C1256.34 216.274 1255 217.619 1255 219.277C1255 220.935 1256.34 222.28 1257.99 222.28Z" fill="#130D3A"/>
<path fill-rule="evenodd" clip-rule="evenodd" d="M1241.99 222.28H1242.01C1243.66 222.28 1245 220.935 1245 219.277C1245 217.619 1243.66 216.274 1242.01 216.274H1241.99C1240.34 216.274 1239 217.619 1239 219.277C1239 220.935 1240.34 222.28 1241.99 222.28Z" fill="#130D3A"/>
<path fill-rule="evenodd" clip-rule="evenodd" d="M1275 222.28C1275.79 222.28 1276.56 221.96 1277.12 221.4C1277.68 220.842 1278 220.068 1278 219.277C1278 218.487 1277.68 217.712 1277.12 217.154C1276.56 216.594 1275.79 216.274 1275 216.274C1274.21 216.274 1273.44 216.594 1272.88 217.154C1272.32 217.712 1272 218.487 1272 219.277C1272 220.068 1272.32 220.842 1272.88 221.4C1273.44 221.96 1274.21 222.28 1275 222.28Z" fill="#130D3A"/>
<path fill-rule="evenodd" clip-rule="evenodd" d="M1292 222.28C1292.79 222.28 1293.56 221.96 1294.12 221.4C1294.68 220.842 1295 220.068 1295 219.277C1295 218.487 1294.68 217.712 1294.12 217.154C1293.56 216.594 1292.79 216.274 1292 216.274C1291.21 216.274 1290.44 216.594 1289.88 217.154C1289.32 217.712 1289 218.487 1289 219.277C1289 220.068 1289.32 220.842 1289.88 221.4C1290.44 221.96 1291.21 222.28 1292 222.28Z" fill="#130D3A"/>
<path fill-rule="evenodd" clip-rule="evenodd" d="M1324.99 222.28H1325.01C1326.66 222.28 1328 220.935 1328 219.277C1328 217.619 1326.66 216.274 1325.01 216.274H1324.99C1323.34 216.274 1322 217.619 1322 219.277C1322 220.935 1323.34 222.28 1324.99 222.28Z" fill="#130D3A"/>
<path fill-rule="evenodd" clip-rule="evenodd" d="M1307.99 222.28H1308.01C1309.66 222.28 1311 220.935 1311 219.277C1311 217.619 1309.66 216.274 1308.01 216.274H1307.99C1306.34 216.274 1305 217.619 1305 219.277C1305 220.935 1306.34 222.28 1307.99 222.28Z" fill="#130D3A"/>
<mask id="mask7_5_1097" style="mask-type:luminance" maskUnits="userSpaceOnUse" x="1338" y="216" width="7" height="7">
<path fill-rule="evenodd" clip-rule="evenodd" d="M1338.3 216.184H1344.7V222.591H1338.3V216.184Z" fill="white"/>
</mask>
<g mask="url(#mask7_5_1097)">
<path fill-rule="evenodd" clip-rule="evenodd" d="M1341.5 222.591C1342.34 222.591 1343.17 222.25 1343.77 221.652C1344.36 221.056 1344.7 220.232 1344.7 219.387C1344.7 218.545 1344.36 217.718 1343.77 217.123C1343.17 216.525 1342.34 216.184 1341.5 216.184C1340.66 216.184 1339.84 216.525 1339.24 217.123C1338.64 217.718 1338.3 218.545 1338.3 219.387C1338.3 220.232 1338.64 221.056 1339.24 221.652C1339.84 222.25 1340.66 222.591 1341.5 222.591Z" fill="#130D3A"/>
</g>
<path fill-rule="evenodd" clip-rule="evenodd" d="M1225 235.294C1225.79 235.294 1226.56 234.974 1227.12 234.415C1227.68 233.855 1228 233.082 1228 232.291C1228 231.501 1227.68 230.726 1227.12 230.168C1226.56 229.607 1225.79 229.288 1225 229.288C1224.21 229.288 1223.44 229.607 1222.88 230.168C1222.32 230.726 1222 231.501 1222 232.291C1222 233.082 1222.32 233.855 1222.88 234.415C1223.44 234.974 1224.21 235.294 1225 235.294Z" fill="#130D3A"/>
<path fill-rule="evenodd" clip-rule="evenodd" d="M1257.99 235.294H1258.01C1259.66 235.294 1261 233.95 1261 232.291C1261 230.633 1259.66 229.288 1258.01 229.288H1257.99C1256.34 229.288 1255 230.633 1255 232.291C1255 233.95 1256.34 235.294 1257.99 235.294Z" fill="#130D3A"/>
<path fill-rule="evenodd" clip-rule="evenodd" d="M1241.99 235.294H1242.01C1243.66 235.294 1245 233.95 1245 232.291C1245 230.633 1243.66 229.288 1242.01 229.288H1241.99C1240.34 229.288 1239 230.633 1239 232.291C1239 233.95 1240.34 235.294 1241.99 235.294Z" fill="#130D3A"/>
<path fill-rule="evenodd" clip-rule="evenodd" d="M1275 235.294C1275.79 235.294 1276.56 234.974 1277.12 234.415C1277.68 233.855 1278 233.082 1278 232.291C1278 231.501 1277.68 230.726 1277.12 230.168C1276.56 229.607 1275.79 229.288 1275 229.288C1274.21 229.288 1273.44 229.607 1272.88 230.168C1272.32 230.726 1272 231.501 1272 232.291C1272 233.082 1272.32 233.855 1272.88 234.415C1273.44 234.974 1274.21 235.294 1275 235.294Z" fill="#130D3A"/>
<path fill-rule="evenodd" clip-rule="evenodd" d="M1292 235.294C1292.79 235.294 1293.56 234.974 1294.12 234.415C1294.68 233.855 1295 233.082 1295 232.291C1295 231.501 1294.68 230.726 1294.12 230.168C1293.56 229.607 1292.79 229.288 1292 229.288C1291.21 229.288 1290.44 229.607 1289.88 230.168C1289.32 230.726 1289 231.501 1289 232.291C1289 233.082 1289.32 233.855 1289.88 234.415C1290.44 234.974 1291.21 235.294 1292 235.294Z" fill="#130D3A"/>
<path fill-rule="evenodd" clip-rule="evenodd" d="M1324.99 235.294H1325.01C1326.66 235.294 1328 233.95 1328 232.291C1328 230.633 1326.66 229.288 1325.01 229.288H1324.99C1323.34 229.288 1322 230.633 1322 232.291C1322 233.95 1323.34 235.294 1324.99 235.294Z" fill="#130D3A"/>
<path fill-rule="evenodd" clip-rule="evenodd" d="M1307.99 235.294H1308.01C1309.66 235.294 1311 233.95 1311 232.291C1311 230.633 1309.66 229.288 1308.01 229.288H1307.99C1306.34 229.288 1305 230.633 1305 232.291C1305 233.95 1306.34 235.294 1307.99 235.294Z" fill="#130D3A"/>
<mask id="mask8_5_1097" style="mask-type:luminance" maskUnits="userSpaceOnUse" x="1338" y="229" width="7" height="7">
<path fill-rule="evenodd" clip-rule="evenodd" d="M1338.3 229.543H1344.7V235.949H1338.3V229.543Z" fill="white"/>
</mask>
<g mask="url(#mask8_5_1097)">
<path fill-rule="evenodd" clip-rule="evenodd" d="M1341.5 235.949C1342.34 235.949 1343.17 235.608 1343.77 235.012C1344.36 234.415 1344.7 233.59 1344.7 232.746C1344.7 231.904 1344.36 231.077 1343.77 230.481C1343.17 229.884 1342.34 229.543 1341.5 229.543C1340.66 229.543 1339.84 229.884 1339.24 230.481C1338.64 231.077 1338.3 231.904 1338.3 232.746C1338.3 233.59 1338.64 234.415 1339.24 235.012C1339.84 235.608 1340.66 235.949 1341.5 235.949Z" fill="#130D3A"/>
</g>
<mask id="mask9_5_1097" style="mask-type:luminance" maskUnits="userSpaceOnUse" x="1222" y="242" width="7" height="7">
<path fill-rule="evenodd" clip-rule="evenodd" d="M1222 242.302H1228V248.308H1222V242.302Z" fill="white"/>
</mask>
<g mask="url(#mask9_5_1097)">
<path fill-rule="evenodd" clip-rule="evenodd" d="M1225 248.308C1225.79 248.308 1226.56 247.988 1227.12 247.428C1227.68 246.869 1228 246.094 1228 245.305C1228 244.513 1227.68 243.74 1227.12 243.18C1226.56 242.621 1225.79 242.302 1225 242.302C1224.21 242.302 1223.44 242.621 1222.88 243.18C1222.32 243.74 1222 244.513 1222 245.305C1222 246.094 1222.32 246.869 1222.88 247.428C1223.44 247.988 1224.21 248.308 1225 248.308Z" fill="#130D3A"/>
</g>
<mask id="mask10_5_1097" style="mask-type:luminance" maskUnits="userSpaceOnUse" x="1254" y="242" width="8" height="7">
<path fill-rule="evenodd" clip-rule="evenodd" d="M1254.99 242.302H1261.41V248.308H1254.99V242.302Z" fill="white"/>
</mask>
<g mask="url(#mask10_5_1097)">
<path fill-rule="evenodd" clip-rule="evenodd" d="M1258.19 248.308H1258.21C1259.98 248.308 1261.41 246.962 1261.41 245.305C1261.41 243.645 1259.98 242.302 1258.21 242.302H1258.19C1256.43 242.302 1254.99 243.645 1254.99 245.305C1254.99 246.962 1256.43 248.308 1258.19 248.308Z" fill="#130D3A"/>
</g>
<mask id="mask11_5_1097" style="mask-type:luminance" maskUnits="userSpaceOnUse" x="1238" y="242" width="7" height="7">
<path fill-rule="evenodd" clip-rule="evenodd" d="M1238.49 242.302H1244.91V248.308H1238.49V242.302Z" fill="white"/>
</mask>
<g mask="url(#mask11_5_1097)">
<path fill-rule="evenodd" clip-rule="evenodd" d="M1241.69 248.308H1241.71C1243.47 248.308 1244.91 246.962 1244.91 245.305C1244.91 243.645 1243.47 242.302 1241.71 242.302H1241.69C1239.93 242.302 1238.49 243.645 1238.49 245.305C1238.49 246.962 1239.93 248.308 1241.69 248.308Z" fill="#130D3A"/>
</g>
<mask id="mask12_5_1097" style="mask-type:luminance" maskUnits="userSpaceOnUse" x="1271" y="242" width="7" height="7">
<path fill-rule="evenodd" clip-rule="evenodd" d="M1271.5 242.302H1277.9V248.308H1271.5V242.302Z" fill="white"/>
</mask>
<g mask="url(#mask12_5_1097)">
<path fill-rule="evenodd" clip-rule="evenodd" d="M1274.7 248.308C1275.54 248.308 1276.37 247.988 1276.96 247.428C1277.56 246.869 1277.9 246.094 1277.9 245.305C1277.9 244.513 1277.56 243.74 1276.96 243.18C1276.37 242.621 1275.54 242.302 1274.7 242.302C1273.86 242.302 1273.03 242.621 1272.44 243.18C1271.84 243.74 1271.5 244.513 1271.5 245.305C1271.5 246.094 1271.84 246.869 1272.44 247.428C1273.03 247.988 1273.86 248.308 1274.7 248.308Z" fill="#130D3A"/>
</g>
<mask id="mask13_5_1097" style="mask-type:luminance" maskUnits="userSpaceOnUse" x="1288" y="242" width="7" height="7">
<path fill-rule="evenodd" clip-rule="evenodd" d="M1288.4 242.302H1294.8V248.308H1288.4V242.302Z" fill="white"/>
</mask>
<g mask="url(#mask13_5_1097)">
<path fill-rule="evenodd" clip-rule="evenodd" d="M1291.6 248.308C1292.44 248.308 1293.27 247.988 1293.87 247.428C1294.46 246.869 1294.8 246.094 1294.8 245.305C1294.8 244.513 1294.46 243.74 1293.87 243.18C1293.27 242.621 1292.44 242.302 1291.6 242.302C1290.76 242.302 1289.93 242.621 1289.34 243.18C1288.74 243.74 1288.4 244.513 1288.4 245.305C1288.4 246.094 1288.74 246.869 1289.34 247.428C1289.93 247.988 1290.76 248.308 1291.6 248.308Z" fill="#130D3A"/>
</g>
<mask id="mask14_5_1097" style="mask-type:luminance" maskUnits="userSpaceOnUse" x="1321" y="242" width="7" height="7">
<path fill-rule="evenodd" clip-rule="evenodd" d="M1321.39 242.302H1327.81V248.308H1321.39V242.302Z" fill="white"/>
</mask>
<g mask="url(#mask14_5_1097)">
<path fill-rule="evenodd" clip-rule="evenodd" d="M1324.59 248.308H1324.61C1326.38 248.308 1327.81 246.962 1327.81 245.305C1327.81 243.645 1326.38 242.302 1324.61 242.302H1324.59C1322.83 242.302 1321.39 243.645 1321.39 245.305C1321.39 246.962 1322.83 248.308 1324.59 248.308Z" fill="#130D3A"/>
</g>
<mask id="mask15_5_1097" style="mask-type:luminance" maskUnits="userSpaceOnUse" x="1304" y="242" width="8" height="7">
<path fill-rule="evenodd" clip-rule="evenodd" d="M1304.89 242.302H1311.31V248.308H1304.89V242.302Z" fill="white"/>
</mask>
<g mask="url(#mask15_5_1097)">
<path fill-rule="evenodd" clip-rule="evenodd" d="M1308.09 248.308H1308.11C1309.88 248.308 1311.31 246.962 1311.31 245.305C1311.31 243.645 1309.88 242.302 1308.11 242.302H1308.09C1306.33 242.302 1304.89 243.645 1304.89 245.305C1304.89 246.962 1306.33 248.308 1308.09 248.308Z" fill="#130D3A"/>
</g>
<mask id="mask16_5_1097" style="mask-type:luminance" maskUnits="userSpaceOnUse" x="1338" y="242" width="7" height="7">
<path fill-rule="evenodd" clip-rule="evenodd" d="M1338.3 242.302H1344.7V248.308H1338.3V242.302Z" fill="white"/>
</mask>
<g mask="url(#mask16_5_1097)">
<path fill-rule="evenodd" clip-rule="evenodd" d="M1341.5 248.308C1342.34 248.308 1343.17 247.988 1343.77 247.428C1344.36 246.869 1344.7 246.094 1344.7 245.305C1344.7 244.513 1344.36 243.74 1343.77 243.18C1343.17 242.621 1342.34 242.302 1341.5 242.302C1340.66 242.302 1339.84 242.621 1339.24 243.18C1338.64 243.74 1338.3 244.513 1338.3 245.305C1338.3 246.094 1338.64 246.869 1339.24 247.428C1339.84 247.988 1340.66 248.308 1341.5 248.308Z" fill="#130D3A"/>
</g>
<ellipse opacity="0.0361096" cx="-304.5" cy="-202.665" rx="575.5" ry="576.104" fill="white"/>
<ellipse opacity="0.0458287" cx="-314.5" cy="-222.686" rx="822.5" ry="822.863" fill="white"/>
<ellipse opacity="0.050665" cx="-345.5" cy="-242.207" rx="1121.5" ry="1122.18" fill="white"/>
</g>
<defs>
<linearGradient id="paint0_linear_5_1097" x1="804.757" y1="-516.327" x2="-36.9015" y2="886.866" gradientUnits="userSpaceOnUse">
<stop stop-color="#7B11F9"/>
<stop offset="0.394106" stop-color="#7922D8"/>
<stop offset="1" stop-color="#3636B2"/>
</linearGradient>
</defs>
</svg>
