<svg width="20" height="19" viewBox="0 0 20 19" fill="none" xmlns="http://www.w3.org/2000/svg">
<path d="M10.0605 18.0597C7.13073 18.0597 4.20096 18.0597 1.27118 18.0597C1.12807 18.0597 0.983101 18.0597 0.839367 18.0449C0.105896 17.9765 -0.188973 17.4823 0.123786 16.8143C0.395213 16.2375 0.691316 15.6755 0.978782 15.1049C2.33592 12.4182 3.69306 9.73186 5.0502 7.04596C5.09214 6.96391 5.13594 6.88187 5.18468 6.80353C5.52643 6.25574 6.08162 6.17863 6.51899 6.65116C6.82743 6.9818 7.08837 7.35317 7.3635 7.71157C8.76176 9.53878 10.16 11.3668 11.5583 13.1956C12.169 13.9914 12.9383 14.0346 13.6557 13.319C14.0116 12.9637 14.3595 12.5991 14.7198 12.2469C15.3694 11.6115 16.1066 11.6497 16.6371 12.3906C17.7018 13.8773 18.74 15.3837 19.7832 16.8852C19.8647 17.003 19.9271 17.1329 19.9682 17.2701C20.0694 17.615 19.9263 17.8926 19.5765 17.9845C19.3572 18.037 19.132 18.0613 18.9066 18.0567C15.9595 18.0616 13.0108 18.0626 10.0605 18.0597Z" fill="#D4D2E3"/>
<path d="M16.6309 3.3379C16.6301 3.91136 16.4591 4.47168 16.1395 4.94784C15.82 5.42399 15.3662 5.79453 14.8358 6.01248C14.3053 6.23042 13.7221 6.28596 13.1601 6.17206C12.5981 6.05815 12.0825 5.77992 11.6788 5.37265C11.2751 4.96538 11.0014 4.44741 10.8924 3.88439C10.7834 3.32138 10.8441 2.73869 11.0666 2.21019C11.2892 1.68169 11.6637 1.23118 12.1427 0.915776C12.6216 0.600374 13.1834 0.434282 13.7568 0.438557C14.5204 0.448261 15.2497 0.757636 15.7873 1.29999C16.3249 1.84234 16.6279 2.57424 16.6309 3.3379Z" fill="#D4D2E3"/>
</svg>
